<?xml version="1.0" encoding="UTF-8"?>
<svg version="1.1" xmlns="http://www.w3.org/2000/svg" width="660" height="378">
<path d="M0 0 C1.12341797 0.46599609 1.12341797 0.46599609 2.26953125 0.94140625 C4.27186575 1.85081683 6.10919014 2.87544704 8 4 C9.10988281 4.64582031 10.21976562 5.29164062 11.36328125 5.95703125 C12.57678871 6.67755641 13.78902291 7.40023013 15 8.125 C15.58934326 8.47409424 16.17868652 8.82318848 16.78588867 9.18286133 C18.22644008 10.06593105 19.61854038 11.02708179 21 12 C21 12.66 21 13.32 21 14 C21.89428711 14.17329834 21.89428711 14.17329834 22.80664062 14.35009766 C26.34341663 15.39806045 28.78609143 17.9749448 31.5 20.375 C32.63458358 21.36293673 33.76998049 22.34994029 34.90625 23.3359375 C35.70289063 24.03348145 35.70289063 24.03348145 36.515625 24.74511719 C37.76337103 25.79995512 39.07875141 26.77403916 40.40625 27.7265625 C41.19515625 28.35691406 41.19515625 28.35691406 42 29 C42 29.66 42 30.32 42 31 C42.56074219 31.24234375 43.12148438 31.4846875 43.69921875 31.734375 C46.46085633 33.2535101 48.50031442 35.10895257 50.8125 37.25 C53.86263916 40.05612803 56.92786694 42.80035359 60.125 45.4375 C61.07375 46.283125 62.0225 47.12875 63 48 C63 48.66 63 49.32 63 50 C63.55171875 50.23332031 64.1034375 50.46664062 64.671875 50.70703125 C67.61255267 52.34019284 69.79077251 54.39339207 72.25 56.6875 C73.22993484 57.59432729 74.21040671 58.5005746 75.19140625 59.40625 C76.11824219 60.2621875 77.04507813 61.118125 78 62 C81.33781395 64.96694573 84.71421047 67.88932733 88.09375 70.80859375 C88.7846875 71.40800781 89.475625 72.00742188 90.1875 72.625 C90.79980469 73.15351562 91.41210938 73.68203125 92.04296875 74.2265625 C94.44604395 76.4041995 96.70678346 78.70678346 99 81 C101.42008863 83.31038923 103.86458571 85.59414949 106.3125 87.875 C106.98112061 88.49850342 107.64974121 89.12200684 108.33862305 89.7644043 C112.21080016 93.36501511 116.11097854 96.92004742 120.12109375 100.3671875 C122.40691063 102.35361465 124.63735951 104.39699321 126.875 106.4375 C131.05749767 110.22043703 135.39725617 113.73984662 139.82421875 117.23046875 C142.40027026 119.32553399 144.68384156 121.62289003 147 124 C149.12720256 125.83476228 151.2680559 127.65044956 153.42578125 129.44921875 C153.94527344 129.96097656 154.46476562 130.47273437 155 131 C155 131.66 155 132.32 155 133 C155.80244141 133.32291016 155.80244141 133.32291016 156.62109375 133.65234375 C159.86943659 135.49253797 162.38395569 137.99862008 165.0625 140.5625 C169.96858814 145.17536813 174.98459345 149.55514803 180.23828125 153.7734375 C182.74658351 155.79568967 185.2179336 157.85321619 187.6809082 159.92993164 C190.10647294 161.97054601 192.55102459 163.98758108 195 166 C195.90105469 166.74056641 195.90105469 166.74056641 196.8203125 167.49609375 C211.617107 178.83534581 231.47038156 185.02783977 250 183 C259.95050466 181.26326391 269.22047921 177.81264602 277.9375 172.75 C281 171 281 171 283 171 C283.2475 170.401875 283.495 169.80375 283.75 169.1875 C285.22418254 166.60768056 286.38713283 165.4184136 289 164 C291.63671875 164.42578125 291.63671875 164.42578125 294 165 C294.48865032 186.88067527 289.60915498 205.66483781 274 222 C273.34 222 272.68 222 272 222 C271.77828125 222.58007812 271.5565625 223.16015625 271.328125 223.7578125 C265.70047507 233.25860974 249.75245464 238.52501586 239.6015625 241.22265625 C207.68135336 249.08088218 178.89657477 241.70396633 150.9921875 225.4453125 C150.33476562 224.96835937 149.67734375 224.49140625 149 224 C149 223.34 149 222.68 149 222 C147.63875 221.62875 147.63875 221.62875 146.25 221.25 C142.76625116 219.9100966 141.57905372 218.60749916 139 216 C136.39053937 214.12593282 133.72573025 212.35893708 131.046875 210.5859375 C130.37140625 210.06257812 129.6959375 209.53921875 129 209 C129 208.34 129 207.68 129 207 C128.41734375 206.731875 127.8346875 206.46375 127.234375 206.1875 C124.97213399 204.98519009 123.19423682 203.66174087 121.25 202 C120.63640625 201.484375 120.0228125 200.96875 119.390625 200.4375 C118 199 118 199 118 197 C117.38125 196.9175 116.7625 196.835 116.125 196.75 C113.32494581 195.76174558 113.25886068 194.59640015 112 192 C110.67015388 191.32640403 109.33616411 190.6609748 108 190 C106.54851225 188.87695108 105.1317824 187.70778017 103.75 186.5 C103.04359375 185.8915625 102.3371875 185.283125 101.609375 184.65625 C100 183 100 183 100 181 C99.46890625 180.78730469 98.9378125 180.57460937 98.390625 180.35546875 C95.07850803 178.47752007 92.49072028 175.91954602 89.75 173.3125 C88.58793481 172.22321618 87.4251765 171.13467131 86.26171875 170.046875 C85.70145996 169.52158203 85.14120117 168.99628906 84.56396484 168.45507812 C80.34764498 164.53230785 75.98971315 160.79177088 71.5 157.1875 C70.675 156.465625 69.85 155.74375 69 155 C69 154.34 69 153.68 69 153 C68.42765625 152.7421875 67.8553125 152.484375 67.265625 152.21875 C64.78871005 150.88634058 62.8658834 149.34943882 60.75 147.5 C60.04359375 146.8915625 59.3371875 146.283125 58.609375 145.65625 C57 144 57 144 57 142 C55.9171875 141.6596875 55.9171875 141.6596875 54.8125 141.3125 C51.39821193 139.71916557 49.60528786 137.72646404 47 135 C45.04111926 133.25655625 43.05578145 131.54768414 41.0625 129.84375 C38.61134502 127.65256601 36.32153678 125.32826588 34 123 C26.48925771 115.76442605 18.8604968 108.75758177 10.71875 102.234375 C7.50449258 99.59277264 4.39592908 96.854825 1.3125 94.0625 C0.78245361 93.58917236 0.25240723 93.11584473 -0.29370117 92.62817383 C-1.56928292 91.46120639 -2.7902517 90.23508334 -4 89 C-4 88.34 -4 87.68 -4 87 C-4.721875 86.773125 -5.44375 86.54625 -6.1875 86.3125 C-9.57369829 84.73227413 -11.39840538 82.67493334 -14 80 C-21.43208573 72.91837034 -29.22327396 66.43072989 -37.39111328 60.22363281 C-38.80846331 59.14567252 -40.21560993 58.05432432 -41.62109375 56.9609375 C-51.56969006 49.54441414 -62.65248597 44.88078267 -75.140625 44.8671875 C-76.87119141 44.86525391 -76.87119141 44.86525391 -78.63671875 44.86328125 C-79.82910156 44.86714844 -81.02148438 44.87101562 -82.25 44.875 C-83.42691406 44.87113281 -84.60382813 44.86726563 -85.81640625 44.86328125 C-92.60701481 44.87083476 -99.26068317 45.15227505 -106 46 C-106.96477449 42.91161269 -107.20479859 41.46616742 -105.8828125 38.45703125 C-101.42799852 31.7550111 -96.56938738 25.80418449 -91 20 C-90.26652344 19.20335938 -89.53304687 18.40671875 -88.77734375 17.5859375 C-83.70123017 12.2322939 -78.5058829 8.44992808 -72 5 C-71.36707031 4.64421875 -70.73414063 4.2884375 -70.08203125 3.921875 C-49.48859666 -7.14325404 -21.58820115 -9.73585542 0 0 Z " fill="#62B3E3" transform="translate(273,47)"/>
<path d="M0 0 C1.93848619 1.49872531 3.87604893 2.99864612 5.8125 4.5 C8.03132515 6.11027218 10.25255933 7.71638379 12.484375 9.30859375 C12.92265625 9.70175781 13.3609375 10.09492188 13.8125 10.5 C13.8125 11.16 13.8125 11.82 13.8125 12.5 C14.39386719 12.76296875 14.97523438 13.0259375 15.57421875 13.296875 C17.92253822 14.55914794 19.65047845 15.96448561 21.625 17.75 C24.73358531 20.53501509 27.87646477 23.26332529 31.07421875 25.9453125 C33.4141681 28.03812113 35.59267468 30.28017468 37.8125 32.5 C40.06518226 34.64465077 42.34320005 36.76139777 44.625 38.875 C45.55747559 39.7397998 45.55747559 39.7397998 46.50878906 40.62207031 C50.24834989 44.08043179 54.02127181 47.48971504 57.87890625 50.81640625 C61.10298686 53.62363603 64.25555362 56.51040257 67.41796875 59.38671875 C69.09673586 60.86830604 70.83551655 62.28331393 72.61328125 63.64453125 C73.33902344 64.25683594 74.06476563 64.86914062 74.8125 65.5 C74.8125 66.16 74.8125 66.82 74.8125 67.5 C75.39773438 67.76683594 75.98296875 68.03367187 76.5859375 68.30859375 C78.85980176 69.52531059 80.52415914 70.84049323 82.4375 72.5625 C83.13101563 73.18253906 83.82453125 73.80257812 84.5390625 74.44140625 C85.28929687 75.12074219 86.03953125 75.80007812 86.8125 76.5 C87.62460937 77.23089844 88.43671875 77.96179688 89.2734375 78.71484375 C90.96816029 80.24009426 92.66216938 81.76613814 94.35546875 83.29296875 C100.94118516 89.22290478 100.94118516 89.22290478 107.8125 94.8125 C108.4725 95.369375 109.1325 95.92625 109.8125 96.5 C109.8125 97.16 109.8125 97.82 109.8125 98.5 C110.369375 98.7475 110.92625 98.995 111.5 99.25 C114.23660913 100.72924818 116.48900869 102.43467439 118.8125 104.5 C118.8125 105.16 118.8125 105.82 118.8125 106.5 C119.38871094 106.76296875 119.96492187 107.0259375 120.55859375 107.296875 C122.9367709 108.56633525 124.80238002 110.02991912 126.875 111.75 C136.98696147 119.72610162 145.55201106 122.447855 158.1875 123.0625 C159.01894531 123.10568359 159.85039062 123.14886719 160.70703125 123.19335938 C162.74203228 123.29861805 164.77724703 123.39973072 166.8125 123.5 C167.91940848 127.34590099 167.70509934 128.87937518 165.8125 132.5 C154.93699512 148.61671205 138.68155713 158.24548304 119.94140625 162.80078125 C98.53649308 166.85934818 75.93462067 161.42579464 57.90234375 149.58984375 C55.13786454 147.63410107 52.46865307 145.60021406 49.8125 143.5 C48.78125 142.695625 47.75 141.89125 46.6875 141.0625 C40.97290159 136.51414616 40.97290159 136.51414616 38.8125 134.5 C38.8125 133.84 38.8125 133.18 38.8125 132.5 C37.8225 132.17 36.8325 131.84 35.8125 131.5 C35.8125 130.84 35.8125 130.18 35.8125 129.5 C35.27109375 129.27699219 34.7296875 129.05398438 34.171875 128.82421875 C31.06273364 127.07918743 28.63404004 124.74680411 26.0625 122.3125 C24.99539648 121.31836082 23.92768696 120.32487172 22.859375 119.33203125 C22.34052734 118.84814941 21.82167969 118.36426758 21.28710938 117.86572266 C15.65676142 112.6379316 15.65676142 112.6379316 9.59375 107.9375 C9.0059375 107.463125 8.418125 106.98875 7.8125 106.5 C7.8125 105.84 7.8125 105.18 7.8125 104.5 C7.23628906 104.24089844 6.66007812 103.98179687 6.06640625 103.71484375 C3.63440213 102.40400618 1.80537579 100.90402166 -0.25 99.0625 C-1.25740234 98.16724609 -1.25740234 98.16724609 -2.28515625 97.25390625 C-3.45310359 96.17709238 -4.60468192 95.08175924 -5.7265625 93.95703125 C-7.25820992 92.42947914 -8.85660802 91.03153947 -10.5 89.625 C-14.4779803 86.16908366 -18.33579974 82.59492024 -22.1875 79 C-26.48681141 74.98972268 -30.80545233 71.02056473 -35.2578125 67.1796875 C-38.49565086 64.36132618 -41.66244627 61.4638604 -44.84375 58.58203125 C-46.79491494 56.8487464 -48.77493825 55.19158828 -50.8125 53.5625 C-51.59625 52.881875 -52.38 52.20125 -53.1875 51.5 C-53.1875 50.84 -53.1875 50.18 -53.1875 49.5 C-53.72375 49.438125 -54.26 49.37625 -54.8125 49.3125 C-58.29391033 48.1214912 -60.41316487 45.91246533 -63.1875 43.5 C-64.1775 43.005 -64.1775 43.005 -65.1875 42.5 C-65.1875 41.84 -65.1875 41.18 -65.1875 40.5 C-65.87070313 40.23445313 -66.55390625 39.96890625 -67.2578125 39.6953125 C-69.33734573 38.84686294 -71.39318678 37.93928301 -73.4296875 36.9921875 C-83.97985115 32.29566304 -93.94774115 30.03591325 -105.3125 34.0625 C-105.99441406 34.33835938 -106.67632812 34.61421875 -107.37890625 34.8984375 C-109.87731656 35.72944223 -111.74045114 35.36830766 -114.1875 34.5 C-112.13425652 21.16571765 -99.69018434 9.2743146 -90.1875 0.5 C-89.59839844 -0.04398438 -89.00929688 -0.58796875 -88.40234375 -1.1484375 C-62.56754826 -22.61119068 -25.56821208 -18.95355025 0 0 Z " fill="#62B3E2" transform="translate(212.1875,127.5)"/>
<path d="M0 0 C0.72832031 0.31066406 1.45664062 0.62132812 2.20703125 0.94140625 C4.2220455 1.85657566 6.08897275 2.88229587 8 4 C9.66675781 4.96873047 9.66675781 4.96873047 11.3671875 5.95703125 C12.5794353 6.67748733 13.79036761 7.40016128 15 8.125 C15.88389404 8.64864136 15.88389404 8.64864136 16.78564453 9.18286133 C18.22631178 10.06587154 19.61848507 11.02704284 21 12 C21 12.66 21 13.32 21 14 C21.55558594 14.0721875 22.11117187 14.144375 22.68359375 14.21875 C25.88496303 15.29846983 27.62393412 17.17276776 30.0625 19.5 C35.51296717 24.59341785 41.187602 29.32218209 47 34 C49.8612796 36.31685008 52.64144184 38.64081826 55.24609375 41.25 C58.32684402 44.32638041 61.49047495 47.29555783 64.6875 50.25 C65.26822266 50.79140625 65.84894531 51.3328125 66.44726562 51.890625 C69.48578172 54.77284245 69.48578172 54.77284245 73 57 C73 57.66 73 58.32 73 59 C73.99 59.33 74.98 59.66 76 60 C76 60.66 76 61.32 76 62 C76.58007812 62.26167969 77.16015625 62.52335937 77.7578125 62.79296875 C80.13098755 64.0705142 81.8800843 65.50585947 83.875 67.3125 C86.23266043 69.43047221 88.58019167 71.46178521 91.0625 73.4375 C94.15291835 76.13339686 96.68884299 79.03297027 99.3359375 82.15234375 C101.05705901 84.16726041 101.05705901 84.16726041 103.6875 86.125 C106.54310287 88.44035368 108.05573647 90.87739494 110 94 C111.01886234 95.50133948 112.03982633 97.0012541 113.0625 98.5 C120.22898231 109.304015 121.4750891 120.00195648 119.375 132.8125 C115.93295227 140.79179247 111.86302229 146.15886842 104 150 C102.845 150.598125 101.69 151.19625 100.5 151.8125 C87.57115444 156.19816722 74.56824324 152.18325631 62.84765625 146.4609375 C56.33852574 142.92573406 51.07656177 138.63495659 45.72265625 133.54296875 C43.0332766 131.03108044 40.25209154 128.73036989 37.375 126.4375 C33.05161867 122.9530751 29.18246285 119.22752882 25.3125 115.25390625 C21.96855337 111.994688 18.35020468 109.11980712 14.7109375 106.19921875 C-1.24950625 93.25148124 -1.24950625 93.25148124 -3 88 C-3.804375 87.690625 -4.60875 87.38125 -5.4375 87.0625 C-8.55283513 85.77077568 -8.55606411 84.88787179 -10 82 C-11.6635479 81.32558869 -13.33066942 80.6599679 -15 80 C-16.71358643 78.38161281 -18.3707726 76.70328319 -20 75 C-22.38613018 72.90358546 -24.79072615 70.83107703 -27.20703125 68.76953125 C-28.09455078 67.89361328 -28.09455078 67.89361328 -29 67 C-29 66.34 -29 65.68 -29 65 C-29.5671875 64.75378906 -30.134375 64.50757812 -30.71875 64.25390625 C-33.38633161 62.78764992 -35.28757463 61.02824198 -37.5 58.9375 C-53.63406638 44.15783978 -69.49425084 33.12125058 -92 34 C-92.625 31.6875 -92.625 31.6875 -93 29 C-92.34 28.01 -91.68 27.02 -91 26 C-90.34 26 -89.68 26 -89 26 C-88.8453125 25.1028125 -88.8453125 25.1028125 -88.6875 24.1875 C-87.90175967 21.68741714 -87.03081147 20.62464918 -85 19 C-84.34 19 -83.68 19 -83 19 C-82.73960937 18.40832031 -82.47921875 17.81664063 -82.2109375 17.20703125 C-75.72709922 5.38971309 -58.307174 -0.87533439 -46.2121582 -4.54199219 C-31.48582953 -7.59094844 -13.5997314 -6.54380381 0 0 Z " fill="#62B3E3" transform="translate(431,47)"/>
<path d="M0 0 C1.74609375 1.5859375 1.74609375 1.5859375 3 3 C4.11375 3.6496875 4.11375 3.6496875 5.25 4.3125 C9.74163019 7.06872762 13.54562908 10.54311722 17.26171875 14.265625 C20.54453275 17.54375595 23.91839068 20.71283922 27.3125 23.875 C28.31978149 24.81351807 28.31978149 24.81351807 29.34741211 25.77099609 C34.34417426 30.4142681 39.41185422 34.94625891 44.60644531 39.3671875 C45.83577701 40.41387942 47.06451499 41.46126898 48.29272461 42.50927734 C49.52340777 43.55871184 50.75589365 44.60603728 51.99047852 45.65087891 C55.48756281 48.62931327 58.7732357 51.72531346 62 55 C67.71857342 60.35335361 73.64527972 65.36119912 79.796875 70.20703125 C82.39854854 72.32435067 84.70546498 74.55743047 87 77 C87.33 77.33 87.66 77.66 88 78 C88.45323962 82.38851061 88.45323962 82.38851061 86.84765625 84.5546875 C68.33152336 98.24933283 42.66771027 102.69758356 20.23388672 99.62060547 C7.76501263 97.48797657 -3.03338491 93.20041117 -14 87 C-14.99 86.505 -14.99 86.505 -16 86 C-16 85.34 -16 84.68 -16 84 C-16.680625 83.79375 -17.36125 83.5875 -18.0625 83.375 C-25.52466857 79.88207003 -30.27567645 73.54640677 -35 67 C-35.79083984 65.93265625 -35.79083984 65.93265625 -36.59765625 64.84375 C-45.56750238 52.18043782 -49.72180884 37.08574718 -47.6875 21.625 C-46.21718473 13.85333358 -42.91433602 8.35106592 -37 3 C-36.113125 2.13375 -35.22625 1.2675 -34.3125 0.375 C-23.79315314 -8.19732122 -11.16402799 -5.42165518 0 0 Z " fill="#63B3E2" transform="translate(126,191)"/>
<path d="M0 0 C0.66 1.32 1.32 2.64 2 4 C0.35 4.33 -1.3 4.66 -3 5 C-3.18175781 5.58007812 -3.36351562 6.16015625 -3.55078125 6.7578125 C-5.0418106 11.39147293 -6.68333576 15.69762355 -9 20 C-8.48985352 19.84063965 -7.97970703 19.6812793 -7.45410156 19.51708984 C-2.10345711 18.38968585 3.49530239 18.692874 8.94921875 18.64990234 C10.46174712 18.6335316 11.97420448 18.60649958 13.48632812 18.56787109 C24.89753736 18.27882064 34.31169738 19.98417425 45 24 C45 24.99 45 25.98 45 27 C49.62921525 28.0161692 53.34462607 27.83796731 58 27 C58.495 30.465 58.495 30.465 59 34 C59.66 34 60.32 34 61 34 C61 34.66 61 35.32 61 36 C62.32 36 63.64 36 65 36 C65.495 38.475 65.495 38.475 66 41 C66.66 41 67.32 41 68 41 C68 41.99 68 42.98 68 44 C69.485 44.495 69.485 44.495 71 45 C70.67 45.99 70.34 46.98 70 48 C69.28457031 47.38253906 68.56914062 46.76507813 67.83203125 46.12890625 C53.50917375 33.95540382 38.52609905 21.88859762 18.859375 21.8671875 C17.12880859 21.86525391 17.12880859 21.86525391 15.36328125 21.86328125 C14.17089844 21.86714844 12.97851562 21.87101562 11.75 21.875 C10.57308594 21.87113281 9.39617187 21.86726563 8.18359375 21.86328125 C1.39298519 21.87083476 -5.26068317 22.15227505 -12 23 C-13.01772483 19.81457877 -13.2025207 18.43868701 -11.77734375 15.3515625 C-11.17019531 14.45179687 -10.56304687 13.55203125 -9.9375 12.625 C-8.97457031 11.19607422 -8.97457031 11.19607422 -7.9921875 9.73828125 C-5.49490881 6.30574721 -2.8582754 3.13713154 0 0 Z " fill="#8CBCD4" transform="translate(179,70)"/>
<path d="M0 0 C0 0.66 0 1.32 0 2 C-0.99 2.33 -1.98 2.66 -3 3 C-4.78097763 4.7948633 -4.78097763 4.7948633 -6.5 6.9375 C-9.37204782 10.40789112 -11.62220291 12.5407343 -16 14 C-17.36639342 15.6396721 -18.6949419 17.31110128 -20 19 C-20.86625 19.845625 -21.7325 20.69125 -22.625 21.5625 C-25.20294708 24.20828779 -27 26.23002534 -27 30 C-27.99 30 -28.98 30 -30 30 C-30.433125 31.670625 -30.433125 31.670625 -30.875 33.375 C-32 37 -32 37 -34 39 C-31.36 39.33 -28.72 39.66 -26 40 C-27.32338632 40.68620031 -28.65949948 41.34786461 -30 42 C-31.2065625 42.5878125 -31.2065625 42.5878125 -32.4375 43.1875 C-35.38988863 44.12362322 -37.05809572 43.84054408 -40 43 C-37.75279778 28.40610055 -23.0091644 14.2837538 -11.8125 5.625 C-3.984375 0 -3.984375 0 0 0 Z " fill="#79B3D5" transform="translate(138,119)"/>
<path d="M0 0 C7.26 0 14.52 0 22 0 C23.12274761 4.49099044 23.05824853 5.06248107 21 9 C15.48910187 17.16675265 8.81594919 23.09121053 1 29 C0.34 28.01 -0.32 27.02 -1 26 C-0.195625 25.7525 0.60875 25.505 1.4375 25.25 C2.283125 24.8375 3.12875 24.425 4 24 C4.74276031 22.02919843 4.74276031 22.02919843 5 20 C5.66 19.34 6.32 18.68 7 18 C7.99 18 8.98 18 10 18 C10 17.01 10 16.02 10 15 C11.65532623 13.98133771 13.32260138 12.98189187 15 12 C15.33 11.01 15.66 10.02 16 9 C15.01 8.67 14.02 8.34 13 8 C13 6.68 13 5.36 13 4 C11.783125 3.87625 10.56625 3.7525 9.3125 3.625 C5.93520941 3.21108694 3.10243305 2.45426549 0 1 C0 0.67 0 0.34 0 0 Z " fill="#76B4D6" transform="translate(357,251)"/>
<path d="M0 0 C2.73385079 2.44736942 4.36119559 5.10840304 6.125 8.3125 C6.90230469 9.69888672 6.90230469 9.69888672 7.6953125 11.11328125 C11.32230114 19.1382651 10.77370148 29.28042094 9.375 37.8125 C5.93295227 45.79179247 1.86302229 51.15886842 -6 55 C-7.155 55.598125 -8.31 56.19625 -9.5 56.8125 C-13.67462145 58.28491157 -17.93113179 58.28272466 -22.3125 58.3125 C-23.01890625 58.31805908 -23.7253125 58.32361816 -24.453125 58.3293457 C-28.1644642 58.27725517 -29.83863069 58.10757954 -33 56 C-27.39 56 -21.78 56 -16 56 C-16 55.67 -16 55.34 -16 55 C-12.04 54.01 -8.08 53.02 -4 52 C-4 51.34 -4 50.68 -4 50 C-3.34 50 -2.68 50 -2 50 C-2.33 49.01 -2.66 48.02 -3 47 C-2.030625 46.5875 -1.06125 46.175 -0.0625 45.75 C3.1304373 44.36801952 3.1304373 44.36801952 3.75 41.875 C3.8325 41.25625 3.915 40.6375 4 40 C4.66 39.67 5.32 39.34 6 39 C7.31886235 35.03543273 7.33935345 30.89101465 7.5625 26.75 C7.62727539 25.63238281 7.62727539 25.63238281 7.69335938 24.4921875 C7.79896725 22.661651 7.89994201 20.83084824 8 19 C7.34 19 6.68 19 6 19 C5.731875 17.741875 5.46375 16.48375 5.1875 15.1875 C4.45925158 11.98446778 4.45925158 11.98446778 2.4375 9.5 C-0.05327835 6.90092694 0.28597424 3.48888577 0 0 Z " fill="#7FB4CD" transform="translate(541,142)"/>
<path d="M0 0 C2.64 0.33 5.28 0.66 8 1 C8 1.99 8 2.98 8 4 C12.62921525 5.0161692 16.34462607 4.83796731 21 4 C21.33 6.31 21.66 8.62 22 11 C22.66 11 23.32 11 24 11 C24 11.66 24 12.32 24 13 C25.32 13 26.64 13 28 13 C28.33 14.65 28.66 16.3 29 18 C29.66 18 30.32 18 31 18 C31 18.99 31 19.98 31 21 C31.99 21.33 32.98 21.66 34 22 C33.505 23.485 33.505 23.485 33 25 C32.28457031 24.38253906 31.56914062 23.76507813 30.83203125 23.12890625 C22.06977824 15.68155796 12.99375601 9.03594946 3.1875 3 C1.6096875 2.01 1.6096875 2.01 0 1 C0 0.67 0 0.34 0 0 Z " fill="#75B3D6" transform="translate(216,93)"/>
<path d="M0 0 C-0.33 0.99 -0.66 1.98 -1 3 C-3.54948957 2.56294465 -5.73527183 2.13136133 -8.0625 0.9765625 C-12.3164853 -0.43766134 -16.36022167 -0.28931372 -20.8125 -0.25 C-21.67681641 -0.25773437 -22.54113281 -0.26546875 -23.43164062 -0.2734375 C-28.96917104 -0.25672043 -33.67857166 0.4795919 -39 2 C-44.08191289 2.90748444 -48.85924657 3.09018866 -54 3 C-50.85492941 0.90328627 -48.23174751 0.02282562 -44.625 -1.0625 C-43.50351563 -1.40410156 -42.38203125 -1.74570313 -41.2265625 -2.09765625 C-27.13894708 -6.0374131 -13.76219282 -4.14903256 0 0 Z " fill="#77B5D2" transform="translate(192,116)"/>
<path d="M0 0 C0.66 0.66 1.32 1.32 2 2 C1.27554688 2.08636719 0.55109375 2.17273437 -0.1953125 2.26171875 C-6.82946019 3.11261394 -6.82946019 3.11261394 -12.3125 6.625 C-15 9 -15 9 -18.375 9.3125 C-19.24125 9.209375 -20.1075 9.10625 -21 9 C-21 9.66 -21 10.32 -21 11 C-21.67546875 11.23074219 -22.3509375 11.46148437 -23.046875 11.69921875 C-28.39169095 13.65332054 -31.82780593 15.05137724 -35 20 C-36.5 21.875 -36.5 21.875 -38 23 C-40.1875 22.6875 -40.1875 22.6875 -42 22 C-41.34 22 -40.68 22 -40 22 C-39.73960937 21.40832031 -39.47921875 20.81664063 -39.2109375 20.20703125 C-33.37274647 9.56645728 -18.53546457 3.96325733 -7.91015625 -0.25 C-4.76693779 -1.06006436 -3.05817534 -1.02116463 0 0 Z " fill="#72B0D2" transform="translate(388,44)"/>
<path d="M0 0 C2.67578125 0.34765625 2.67578125 0.34765625 5 1 C5.34639647 16.51086423 4.7455409 32.63119654 -6 45 C-6.35588187 41.08529947 -5.44570011 38.62919788 -3.80078125 35.11328125 C-2.20971846 30.91442775 -1.67973506 26.42227635 -1 22 C-0.34 22 0.32 22 1 22 C1.66 15.73 2.32 9.46 3 3 C0.36 3.66 -2.28 4.32 -5 5 C-2.8125 2.4375 -2.8125 2.4375 0 0 Z " fill="#89BAD0" transform="translate(562,211)"/>
<path d="M0 0 C4.52800381 2.85372695 8.37214549 6.00938423 12.25 9.6875 C15.83161113 13.24171839 15.83161113 13.24171839 20 16 C20 16.66 20 17.32 20 18 C20.99 18.33 21.98 18.66 23 19 C23 19.66 23 20.32 23 21 C23.598125 21.268125 24.19625 21.53625 24.8125 21.8125 C26.97224808 22.98493467 28.35790256 24.19369282 30 26 C29.34 26.66 28.68 27.32 28 28 C23.125 25.25 23.125 25.25 22 23 C20.02 23.33 18.04 23.66 16 24 C16.33 22.02 16.66 20.04 17 18 C15.906875 17.401875 14.81375 16.80375 13.6875 16.1875 C9.74793831 13.92722622 7.47404793 12.4221438 6 8 C4.35 7.67 2.7 7.34 1 7 C1.33 5.68 1.66 4.36 2 3 C1.34 3 0.68 3 0 3 C0 2.01 0 1.02 0 0 Z " fill="#80B9D6" transform="translate(484,88)"/>
<path d="M0 0 C-11.79508564 5.96715968 -26.11941303 12.82302485 -39.5 9 C-40.7375 8.505 -40.7375 8.505 -42 8 C-42 7.67 -42 7.34 -42 7 C-40.22925083 6.97294271 -38.45838289 6.95357805 -36.6875 6.9375 C-35.70136719 6.92589844 -34.71523438 6.91429687 -33.69921875 6.90234375 C-31 7 -31 7 -28 8 C-28 7.34 -28 6.68 -28 6 C-25.36 6 -22.72 6 -20 6 C-20 4.35 -20 2.7 -20 1 C-19.35933594 1.02320313 -18.71867187 1.04640625 -18.05859375 1.0703125 C-13.87067713 1.15769079 -10.08055509 1.22224294 -6.0625 -0.0625 C-3 -1 -3 -1 0 0 Z " fill="#6DAFD0" transform="translate(356,281)"/>
<path d="M0 0 C1.58468677 0.45363171 3.16769924 0.91311452 4.75 1.375 C5.63171875 1.63023437 6.5134375 1.88546875 7.421875 2.1484375 C10 3 10 3 11.84155273 3.97485352 C16.06352264 5.98006239 20.75812914 6.62042099 25.3125 7.5625 C26.38306641 7.78574951 27.45363281 8.00899902 28.55664062 8.23901367 C36.72543544 9.87978078 44.66916669 10.85314236 53 11 C53 11.33 53 11.66 53 12 C34.18143627 12.88548331 15.79826387 11.24494616 -1 2 C-0.67 1.34 -0.34 0.68 0 0 Z " fill="#87BDD8" transform="translate(118,279)"/>
<path d="M0 0 C2.97 0.495 2.97 0.495 6 1 C6 1.99 6 2.98 6 4 C6.66 4 7.32 4 8 4 C8 4.66 8 5.32 8 6 C9.65 6.33 11.3 6.66 13 7 C13 7.66 13 8.32 13 9 C14.79002013 10.23209178 16.6332908 11.38751674 18.5 12.5 C20.3667092 13.61248326 22.20997987 14.76790822 24 16 C24 16.66 24 17.32 24 18 C25.19625 18.268125 26.3925 18.53625 27.625 18.8125 C32.82122987 20.12077064 36.93823167 21.4073475 40 26 C30.11288047 24.75310807 21.52697454 19.30673123 14 13 C13.43893555 12.53158691 12.87787109 12.06317383 12.29980469 11.58056641 C10.36051639 9.95652451 8.42849677 8.32433991 6.5 6.6875 C5.86336426 6.14722168 5.22672852 5.60694336 4.57080078 5.05029297 C3.02716705 3.72314703 1.51080905 2.36439637 0 1 C0 0.67 0 0.34 0 0 Z " fill="#76AFCA" transform="translate(468,172)"/>
<path d="M0 0 C2.97 0.495 2.97 0.495 6 1 C6 1.66 6 2.32 6 3 C7.11375 3.185625 7.11375 3.185625 8.25 3.375 C11 4 11 4 12.8671875 4.9453125 C15.16919936 6.08367002 17.40777021 6.79288118 19.875 7.5 C22.6660344 8.30793101 25.38945154 9.14020255 28.125 10.125 C31.75523933 11.22985545 35.22684486 11.60967361 39 12 C39.495 13.485 39.495 13.485 40 15 C29.0433353 14.08694461 19.37444964 11.37722111 9.3125 7 C8.50949463 6.65573975 7.70648926 6.31147949 6.87915039 5.95678711 C6.13141357 5.62042236 5.38367676 5.28405762 4.61328125 4.9375 C3.94079346 4.63714844 3.26830566 4.33679688 2.57543945 4.02734375 C1 3 1 3 0 0 Z " fill="#7CB4D1" transform="translate(433,275)"/>
<path d="M0 0 C4.90785705 0.14872294 6.94375667 2.67294186 10.109375 6.03125 C14.23174165 10.32396238 18.86300329 14.09199205 23.5 17.8125 C24.7375 18.8953125 24.7375 18.8953125 26 20 C26 20.66 26 21.32 26 22 C26.66 22.33 27.32 22.66 28 23 C25.69 22.67 23.38 22.34 21 22 C20.67 20.68 20.34 19.36 20 18 C19.34 18 18.68 18 18 18 C16.375 16.625 16.375 16.625 15 15 C15 14.34 15 13.68 15 13 C13.68 12.67 12.36 12.34 11 12 C11 11.34 11 10.68 11 10 C9.68 10 8.36 10 7 10 C7 9.01 7 8.02 7 7 C6.01 7 5.02 7 4 7 C3.67 6.01 3.34 5.02 3 4 C2.01979625 2.9805881 1.02196992 1.97753644 0 1 C0 0.67 0 0.34 0 0 Z " fill="#77B2D2" transform="translate(261,173)"/>
<path d="M0 0 C5.43389871 0.37910921 7.39810628 2.02868128 11 6 C12.3921875 6.99 12.3921875 6.99 13.8125 8 C16 10 16 10 16.3515625 12.4296875 C16 15 16 15 14.56640625 16.6953125 C9.60324865 20.23627874 4.89873065 22.44339052 -1 24 C-1.33 23.34 -1.66 22.68 -2 22 C-0.35 21.67 1.3 21.34 3 21 C3 20.01 3 19.02 3 18 C6.96 17.505 6.96 17.505 11 17 C11.49954928 13.50315502 11.74793389 11.01166816 9.58203125 8.08203125 C6.61441214 5.11441214 3.47549801 2.36333865 0 0 Z " fill="#82BAD5" transform="translate(198,259)"/>
<path d="M0 0 C1.33365476 0.2901934 2.66690215 0.58225892 4 0.875 C4.83402344 1.05546875 5.66804688 1.2359375 6.52734375 1.421875 C8.56273895 1.89776519 10.56923733 2.49554863 12.5625 3.125 C22.91923667 5.72968826 34.73135955 4.17819646 45 2 C45 2.66 45 3.32 45 4 C31.57399355 8.13107891 13.98920853 9.62194945 1 3 C0.67 2.01 0.34 1.02 0 0 Z " fill="#68A7C7" transform="translate(490,226)"/>
<path d="M0 0 C0.66 0.33 1.32 0.66 2 1 C0.64004663 4.1618916 -0.77859373 5.85608546 -3.5 7.9375 C-6.51483863 10.42287317 -7.85873631 12.19578771 -9 16 C-9.49628906 16.86882812 -9.99257812 17.73765625 -10.50390625 18.6328125 C-12.30227565 22.68031753 -12.54915617 26.00333489 -12.6875 30.375 C-12.72166016 31.11105469 -12.75582031 31.84710938 -12.79101562 32.60546875 C-12.87272789 34.40313853 -12.93805781 36.20154046 -13 38 C-16.49858624 32.75212064 -15.40695882 26.33488388 -14.25 20.3125 C-12.53645338 13.51822772 -9.15239745 8.76596764 -4 4 C-3.236875 3.236875 -2.47375 2.47375 -1.6875 1.6875 C-1.130625 1.130625 -0.57375 0.57375 0 0 Z " fill="#75A7C4" transform="translate(93,190)"/>
<path d="M0 0 C0.33 0.66 0.66 1.32 1 2 C1.99 2 2.98 2 4 2 C4 2.66 4 3.32 4 4 C4.928125 4.226875 5.85625 4.45375 6.8125 4.6875 C10 6 10 6 11.5 8.5625 C12.82509965 11.34908756 12.82509965 11.34908756 16.1875 11.8125 C17.115625 11.874375 18.04375 11.93625 19 12 C21.42857143 18.28571429 21.42857143 18.28571429 20 22 C18.5 20.625 18.5 20.625 17 19 C17 18.34 17 17.68 17 17 C16.42765625 16.7421875 15.8553125 16.484375 15.265625 16.21875 C12.78871005 14.88634058 10.8658834 13.34943882 8.75 11.5 C8.04359375 10.8915625 7.3371875 10.283125 6.609375 9.65625 C5 8 5 8 5 6 C4.38125 5.731875 3.7625 5.46375 3.125 5.1875 C1 4 1 4 -1 1 C-0.67 0.67 -0.34 0.34 0 0 Z " fill="#72ADCC" transform="translate(368,222)"/>
<path d="M0 0 C-0.33 0.66 -0.66 1.32 -1 2 C-1.66 2 -2.32 2 -3 2 C-3 2.66 -3 3.32 -3 4 C-7.95 5.485 -7.95 5.485 -13 7 C-13 7.66 -13 8.32 -13 9 C-13.66 9 -14.32 9 -15 9 C-15.33 10.32 -15.66 11.64 -16 13 C-19.21667249 13.08935201 -21.90226756 12.84062397 -25 12 C-22.00946306 9.98554109 -19.00804842 7.98821241 -16 6 C-15.28457031 5.52433594 -14.56914062 5.04867187 -13.83203125 4.55859375 C-3.83645746 -1.91822873 -3.83645746 -1.91822873 0 0 Z " fill="#88BCD6" transform="translate(214,48)"/>
<path d="M0 0 C-0.33 0.99 -0.66 1.98 -1 3 C-11.2603149 7.35123302 -23.1238393 6.292778 -34 6 C-34 5.34 -34 4.68 -34 4 C-33.38592285 3.9498877 -32.7718457 3.89977539 -32.13916016 3.84814453 C-29.30057723 3.61306189 -26.46282334 3.36907466 -23.625 3.125 C-22.65949219 3.04636719 -21.69398438 2.96773438 -20.69921875 2.88671875 C-15.02579214 2.3917218 -9.53845171 1.61840361 -3.97412109 0.39794922 C-2 0 -2 0 0 0 Z " fill="#6DABCD" transform="translate(190,284)"/>
<path d="M0 0 C7.55906449 5.3281658 14.46370027 11.46370027 21 18 C18.75 18.6875 18.75 18.6875 16 19 C13.6875 17.75 13.6875 17.75 12 16 C12 15.01 12 14.02 12 13 C11.01 13 10.02 13 9 13 C9 12.01 9 11.02 9 10 C7.88625 9.690625 7.88625 9.690625 6.75 9.375 C3.17628111 7.58814055 1.93477504 5.43960007 0 2 C0 1.34 0 0.68 0 0 Z " fill="#7DB4D3" transform="translate(463,69)"/>
<path d="M0 0 C2.475 0.495 2.475 0.495 5 1 C5 1.66 5 2.32 5 3 C5.5775 3.268125 6.155 3.53625 6.75 3.8125 C9 5 9 5 11.0625 6.5625 C13.04181496 8.18688728 13.04181496 8.18688728 16 9 C16 9.66 16 10.32 16 11 C16.99 11.33 17.98 11.66 19 12 C20.39712274 13.95597184 21.73779907 15.95436401 23 18 C22.67 18.66 22.34 19.32 22 20 C20.64455078 18.84371094 20.64455078 18.84371094 19.26171875 17.6640625 C18.07038333 16.65095837 16.87897317 15.63794212 15.6875 14.625 C15.09259766 14.11710937 14.49769531 13.60921875 13.88476562 13.0859375 C13.30791016 12.59609375 12.73105469 12.10625 12.13671875 11.6015625 C11.60780029 11.15119629 11.07888184 10.70083008 10.53393555 10.23681641 C9.08837533 9.07125727 7.54505544 8.03003696 6 7 C6 6.34 6 5.68 6 5 C5.01 4.67 4.02 4.34 3 4 C3 3.34 3 2.68 3 2 C2.01 1.67 1.02 1.34 0 1 C0 0.67 0 0.34 0 0 Z " fill="#7DB2CF" transform="translate(245,255)"/>
<path d="M0 0 C32.44542868 -1.06201675 32.44542868 -1.06201675 44 5 C44.66 5.66 45.32 6.32 46 7 C41.71009608 7.19953041 38.92040178 6.66617076 35 5 C33.0075675 4.62406934 31.0081326 4.28020455 29 4 C29 3.34 29 2.68 29 2 C19.43 1.67 9.86 1.34 0 1 C0 0.67 0 0.34 0 0 Z " fill="#90BED4" transform="translate(387,42)"/>
<path d="M0 0 C9.9 0 19.8 0 30 0 C30 0.66 30 1.32 30 2 C24.08351245 3.09564584 18.55217508 2.93766323 12.5625 2.5625 C11.17901367 2.48418945 11.17901367 2.48418945 9.76757812 2.40429688 C7.51128464 2.27569984 5.25555971 2.1407929 3 2 C2.67 2.66 2.34 3.32 2 4 C0.35 4 -1.3 4 -3 4 C-2.67 3.34 -2.34 2.68 -2 2 C-1.34 2 -0.68 2 0 2 C0 1.34 0 0.68 0 0 Z " fill="#80B5D0" transform="translate(227,42)"/>
<path d="M0 0 C4.38462134 0.50109958 6.8000997 1.98295115 10 5 C10 5.66 10 6.32 10 7 C10.99 7 11.98 7 13 7 C14.6484375 8.6796875 14.6484375 8.6796875 16.375 10.875 C18.99968092 14.02907516 20.88132636 16.00153366 25 17 C25 17.99 25 18.98 25 20 C18.69372648 16.97298871 13.83620079 14.06649607 9 9 C6.61539761 6.8695938 4.20794998 4.76774778 1.79296875 2.671875 C1.20128906 2.12015625 0.60960937 1.5684375 0 1 C0 0.67 0 0.34 0 0 Z " fill="#81B5CF" transform="translate(299,162)"/>
<path d="M0 0 C3 1 3 1 4.0625 3 C4.371875 3.66 4.68125 4.32 5 5 C5.66 5.33 6.32 5.66 7 6 C7 6.99 7 7.98 7 9 C8.65 9 10.3 9 12 9 C12.12375 9.804375 12.2475 10.60875 12.375 11.4375 C12.58125 12.283125 12.7875 13.12875 13 14 C13.66 14.33 14.32 14.66 15 15 C14.67 15.99 14.34 16.98 14 18 C13.67 17.01 13.34 16.02 13 15 C11.88625 14.566875 11.88625 14.566875 10.75 14.125 C7.28573741 12.70780167 5.53963153 10.73010389 3 8 C2.071875 7.113125 1.14375 6.22625 0.1875 5.3125 C-2 3 -2 3 -2 1 C-1.34 0.67 -0.68 0.34 0 0 Z " fill="#75AECB" transform="translate(408,114)"/>
<path d="M0 0 C8.34129703 1.40875239 13.470765 4.62298294 20 10 C18.3739713 9.93999894 16.74898451 9.8512115 15.125 9.75 C13.76761719 9.68039063 13.76761719 9.68039063 12.3828125 9.609375 C10 9 10 9 8.796875 6.984375 C8.53390625 6.32953125 8.2709375 5.6746875 8 5 C6.67203709 4.64587656 5.33783393 4.31478446 4 4 C1.75 1.9375 1.75 1.9375 0 0 Z " fill="#79B1D0" transform="translate(192,118)"/>
<path d="M0 0 C7.26 0 14.52 0 22 0 C22.33 1.32 22.66 2.64 23 4 C22.34 4.66 21.68 5.32 21 6 C21 5.01 21 4.02 21 3 C19.85724609 3.03480469 19.85724609 3.03480469 18.69140625 3.0703125 C12.09254606 3.18564838 6.37740498 2.70064133 0 1 C0 0.67 0 0.34 0 0 Z " fill="#88B5CE" transform="translate(357,251)"/>
<path d="M0 0 C0.33 0.66 0.66 1.32 1 2 C0.44731445 1.83701416 -0.10537109 1.67402832 -0.67480469 1.50610352 C-3.25473034 0.94455523 -5.56355224 0.8869974 -8.203125 0.90234375 C-9.1828125 0.90556641 -10.1625 0.90878906 -11.171875 0.91210938 C-12.18765625 0.92048828 -13.2034375 0.92886719 -14.25 0.9375 C-15.28125 0.94201172 -16.3125 0.94652344 -17.375 0.95117188 C-19.91672573 0.96293912 -22.45833319 0.97937989 -25 1 C-16.91989078 -4.38673948 -8.33956365 -4.42507459 0 0 Z " fill="#80B9CF" transform="translate(120,189)"/>
<path d="M0 0 C0.33 0.66 0.66 1.32 1 2 C2.3323817 2.33711705 3.6658469 2.66996304 5 3 C6.64746094 4.10742188 6.64746094 4.10742188 8.234375 5.46875 C8.80800781 5.95730469 9.38164062 6.44585937 9.97265625 6.94921875 C10.55917969 7.46097656 11.14570313 7.97273438 11.75 8.5 C12.35199219 9.01175781 12.95398438 9.52351563 13.57421875 10.05078125 C15.07373927 11.33948483 16.54004941 12.66663472 18 14 C18 14.33 18 14.66 18 15 C15.75 15.3125 15.75 15.3125 13 15 C10.875 12.5625 10.875 12.5625 9 10 C8.01 9.67 7.02 9.34 6 9 C6 8.34 6 7.68 6 7 C5.21625 6.690625 4.4325 6.38125 3.625 6.0625 C1 5 1 5 -1 4 C-0.67 2.68 -0.34 1.36 0 0 Z " fill="#7FB3D1" transform="translate(293,59)"/>
<path d="M0 0 C4.80172134 1.10808954 7.91161335 2.04686508 11 6 C11 6.66 11 7.32 11 8 C11.99 8.33 12.98 8.66 14 9 C15.5625 10.4375 15.5625 10.4375 17 12 C17.66 12.66 18.32 13.32 19 14 C18.34 14 17.68 14 17 14 C16.67 14.66 16.34 15.32 16 16 C15.34773438 15.33613281 14.69546875 14.67226562 14.0234375 13.98828125 C8.39641677 8.24966611 8.39641677 8.24966611 2.375 2.9375 C1.59125 2.298125 0.8075 1.65875 0 1 C0 0.67 0 0.34 0 0 Z " fill="#81B8D3" transform="translate(448,154)"/>
<path d="M0 0 C3.3 0 6.6 0 10 0 C10 0.66 10 1.32 10 2 C11.423125 1.9690625 11.423125 1.9690625 12.875 1.9375 C16 2 16 2 18 3 C18 3.66 18 4.32 18 5 C18.99 5 19.98 5 21 5 C21 5.99 21 6.98 21 8 C19.14375 7.3503125 19.14375 7.3503125 17.25 6.6875 C11.58302782 4.78947104 5.80978785 3.38609152 0 2 C0 1.34 0 0.68 0 0 Z " fill="#73AFCC" transform="translate(350,79)"/>
<path d="M0 0 C2.0996052 6.28360108 0.34193884 13.93870202 -2.25 19.8515625 C-3.42877132 21.96129526 -4.64553223 23.99931668 -6 26 C-6.33 26 -6.66 26 -7 26 C-7.35588187 22.08529947 -6.44570011 19.62919788 -4.80078125 16.11328125 C-3.20971846 11.91442775 -2.67973506 7.42227635 -2 3 C-1.34 3 -0.68 3 0 3 C0 2.01 0 1.02 0 0 Z " fill="#6AACD1" transform="translate(563,230)"/>
<path d="M0 0 C6.61242722 1.82221376 12.80520671 4.05223604 19 7 C19 7.33 19 7.66 19 8 C11.40047112 7.62625268 5.7597743 5.42410997 -1 2 C-0.67 1.34 -0.34 0.68 0 0 Z " fill="#80B6D4" transform="translate(118,279)"/>
<path d="M0 0 C0.67578125 1.765625 0.67578125 1.765625 1 4 C-0.14453125 5.921875 -0.14453125 5.921875 -1.8125 7.75 C-2.35519531 8.36359375 -2.89789062 8.9771875 -3.45703125 9.609375 C-5 11 -5 11 -7 11 C-7.268125 11.639375 -7.53625 12.27875 -7.8125 12.9375 C-9 15 -9 15 -12 16 C-12.33 15.01 -12.66 14.02 -13 13 C-7.25 8 -7.25 8 -5 8 C-4.731875 7.4225 -4.46375 6.845 -4.1875 6.25 C-2.98280141 3.9674132 -1.59201885 2.0262058 0 0 Z " fill="#87B6CE" transform="translate(552,258)"/>
<path d="M0 0 C0.66 0.33 1.32 0.66 2 1 C3.79064905 1.06106142 5.58360978 1.0601095 7.375 1.02734375 C8.44234375 1.01509766 9.5096875 1.00285156 10.609375 0.99023438 C12.86985578 0.95507713 15.13027919 0.91601428 17.390625 0.87304688 C18.45796875 0.86208984 19.5253125 0.85113281 20.625 0.83984375 C21.60726562 0.82300537 22.58953125 0.80616699 23.6015625 0.78881836 C26 1 26 1 28 3 C12.16 3.495 12.16 3.495 -4 4 C-3.01 3.67 -2.02 3.34 -1 3 C-0.67 2.01 -0.34 1.02 0 0 Z " fill="#64A9D1" transform="translate(174,86)"/>
<path d="M0 0 C0.66 1.32 1.32 2.64 2 4 C0.35 4.33 -1.3 4.66 -3 5 C-3.15855469 5.59167969 -3.31710938 6.18335937 -3.48046875 6.79296875 C-5.08163388 12.21569926 -6.65489248 15.35950451 -11 19 C-10.52056199 14.01384471 -9.08716662 11.20996136 -6.0625 7.25 C-5.35222656 6.30640625 -4.64195312 5.3628125 -3.91015625 4.390625 C-2 2 -2 2 0 0 Z " fill="#76AECB" transform="translate(179,70)"/>
<path d="M0 0 C0.33 0.66 0.66 1.32 1 2 C0.06027344 1.84660156 -0.87945312 1.69320312 -1.84765625 1.53515625 C-6.69295331 0.84297096 -11.5517789 0.65206371 -16.4375 0.4375 C-17.35982422 0.39431641 -18.28214844 0.35113281 -19.23242188 0.30664062 C-21.48816163 0.20145069 -23.74399499 0.09930893 -26 0 C-26 -0.33 -26 -0.66 -26 -1 C-17.75473778 -2.94463731 -7.91494028 -3.31323082 0 0 Z " fill="#67A7C8" transform="translate(133,159)"/>
<path d="M0 0 C4.18613009 1.83143192 7.52761094 4.03825639 11 7 C8 8 8 8 5.1875 6.85546875 C4.135625 6.30503906 3.08375 5.75460938 2 5.1875 C0.948125 4.64480469 -0.10375 4.10210937 -1.1875 3.54296875 C-4 2 -4 2 -7 0 C-4.23868631 -1.38065685 -2.96128936 -0.80762437 0 0 Z " fill="#7EB6D4" transform="translate(275,48)"/>
<path d="M0 0 C1.36282104 0.00616333 1.36282104 0.00616333 2.75317383 0.01245117 C3.7528418 0.01438477 4.75250977 0.01631836 5.7824707 0.01831055 C7.35544922 0.03667969 7.35544922 0.03667969 8.96020508 0.05541992 C9.98952148 0.05606445 11.01883789 0.05670898 12.0793457 0.05737305 C17.41089474 0.08811228 22.52057154 0.31432488 27.77270508 1.24291992 C27.44270508 1.90291992 27.11270508 2.56291992 26.77270508 3.24291992 C25.74145508 3.07791992 24.71020508 2.91291992 23.64770508 2.74291992 C16.68290881 1.86763134 8.47872727 1.00757919 1.77270508 3.24291992 C-0.23604935 2.96720853 -2.23908179 2.64056255 -4.22729492 2.24291992 C-2.22729492 0.24291992 -2.22729492 0.24291992 0 0 Z " fill="#6AA9CF" transform="translate(388.227294921875,42.757080078125)"/>
<path d="M0 0 C3.77024649 1.25674883 5.22180196 3.1586611 8 6 C10.30140597 8.03825144 12.64450427 10.02464191 15 12 C14.01 12.495 14.01 12.495 13 13 C11.125 12.22265625 11.125 12.22265625 9 11.0625 C6.15705586 9.43192464 6.15705586 9.43192464 3 9 C2.67 6.69 2.34 4.38 2 2 C1.34 2 0.68 2 0 2 C0 1.34 0 0.68 0 0 Z " fill="#8AC0DA" transform="translate(319,81)"/>
<path d="M0 0 C2.64 0.33 5.28 0.66 8 1 C8 1.66 8 2.32 8 3 C8.66 3 9.32 3 10 3 C10 3.66 10 4.32 10 5 C10.94875 5.0825 11.8975 5.165 12.875 5.25 C16 6 16 6 17.375 8.0625 C17.58125 8.701875 17.7875 9.34125 18 10 C11.90375311 8.3523657 6.33066806 5.34188389 1 2 C0.67 1.34 0.34 0.68 0 0 Z " fill="#81B8D2" transform="translate(269,275)"/>
<path d="M0 0 C2.03833424 1.2739589 4.03852126 2.61061923 6 4 C6 4.66 6 5.32 6 6 C6.5775 6.2475 7.155 6.495 7.75 6.75 C10.3002997 8.16683317 12.01785701 9.87627537 14 12 C13.34 12.66 12.68 13.32 12 14 C10.04115757 12.2088872 8.08290714 10.41713468 6.125 8.625 C5.56941406 8.11710938 5.01382813 7.60921875 4.44140625 7.0859375 C2.25988219 5.0883974 0.09183907 3.09183907 -2 1 C-1.34 0.67 -0.68 0.34 0 0 Z " fill="#80B6D1" transform="translate(174,189)"/>
<path d="M0 0 C0.99 0.495 0.99 0.495 2 1 C2 1.66 2 2.32 2 3 C2.84304688 3.36738281 2.84304688 3.36738281 3.703125 3.7421875 C6.41865854 5.22926539 8.46391438 7.04062782 10.75 9.125 C11.94882812 10.21167969 11.94882812 10.21167969 13.171875 11.3203125 C13.77515625 11.87460938 14.3784375 12.42890625 15 13 C13.109375 13.58203125 13.109375 13.58203125 11 14 C9.25 12.6875 9.25 12.6875 8 11 C8 10.34 8 9.68 8 9 C7.236875 8.773125 6.47375 8.54625 5.6875 8.3125 C2.4246973 6.71903821 1.53739291 5.23661664 0 2 C0 1.34 0 0.68 0 0 Z " fill="#92BFD7" transform="translate(334,94)"/>
<path d="M0 0 C0.66 0.66 1.32 1.32 2 2 C-1.46152691 3.1538423 -4.14306072 2.99225631 -7.74609375 2.83984375 C-10.2869624 3.02039074 -11.76551593 3.82999294 -14 5 C-14.99 5 -15.98 5 -17 5 C-17.33 5.66 -17.66 6.32 -18 7 C-18.66 6.34 -19.32 5.68 -20 5 C-18.06305322 4.18618205 -16.12542289 3.37399084 -14.1875 2.5625 C-13.10855469 2.11003906 -12.02960938 1.65757813 -10.91796875 1.19140625 C-6.67871132 -0.53948199 -4.43798474 -1.25173929 0 0 Z " fill="#93C4DC" transform="translate(388,44)"/>
<path d="M0 0 C6.01175995 0.42941143 10.95170617 1.56336805 16 5 C16.99 6.485 16.99 6.485 18 8 C13.3110507 7.44380331 9.80075733 6.11817327 5.625 3.9375 C4.56539063 3.38964844 3.50578125 2.84179688 2.4140625 2.27734375 C1.61742187 1.85582031 0.82078125 1.43429688 0 1 C0 0.67 0 0.34 0 0 Z " fill="#7FB3D0" transform="translate(490,190)"/>
<path d="M0 0 C1.093125 0.33 2.18625 0.66 3.3125 1 C6.84578884 2.13086649 6.84578884 2.13086649 10 2 C10.66 3.98 11.32 5.96 12 8 C11.34 8.66 10.68 9.32 10 10 C6.66666667 6.66666667 3.33333333 3.33333333 0 0 Z " fill="#75B8D6" transform="translate(220,233)"/>
<path d="M0 0 C0 0.66 0 1.32 0 2 C-5.437658 4.718829 -10.26885067 5.30163989 -16.3125 5.3125 C-17.01826172 5.31765625 -17.72402344 5.3228125 -18.45117188 5.328125 C-22.16339596 5.27829649 -23.83810745 5.10792837 -27 3 C-21.39 3 -15.78 3 -10 3 C-10 2.67 -10 2.34 -10 2 C-3.375 0 -3.375 0 0 0 Z " fill="#99C7E0" transform="translate(535,195)"/>
<path d="M0 0 C2.42857143 6.28571429 2.42857143 6.28571429 1 10 C-0.5 8.625 -0.5 8.625 -2 7 C-2 6.34 -2 5.68 -2 5 C-2.9590625 4.566875 -2.9590625 4.566875 -3.9375 4.125 C-6 3 -6 3 -7 1 C-4 0 -4 0 0 0 Z " fill="#76B5D9" transform="translate(387,234)"/>
<path d="M0 0 C4.42576775 0.50580203 6.66763686 2.1179562 10 5 C10.66 5.33 11.32 5.66 12 6 C12.625 8.5625 12.625 8.5625 13 11 C10.42262834 9.96905133 9.23715753 9.4891374 8 6.9375 C7.67 6.298125 7.34 5.65875 7 5 C5.66923011 4.65657551 4.33568021 4.32380126 3 4 C1.25 1.9375 1.25 1.9375 0 0 Z " fill="#8EBFD5" transform="translate(152,172)"/>
<path d="M0 0 C0 0.66 0 1.32 0 2 C-0.66 2 -1.32 2 -2 2 C-2.33 3.32 -2.66 4.64 -3 6 C-6.21667249 6.08935201 -8.90226756 5.84062397 -12 5 C-4.88610478 -0.74031891 -4.88610478 -0.74031891 0 0 Z " fill="#7BB9D8" transform="translate(201,55)"/>
<path d="M0 0 C7.26 0 14.52 0 22 0 C17.05383678 3.29744215 11.85779081 3.49100391 6 3 C2.5 2 2.5 2 0 1 C0 0.67 0 0.34 0 0 Z " fill="#81BBD8" transform="translate(314,288)"/>
<path d="M0 0 C3.64022608 1.43008882 6.85960664 3.69704487 10 6 C10.33 6.99 10.66 7.98 11 9 C7.9168649 7.80100302 4.93720508 6.52299523 2 5 C2 4.34 2 3.68 2 3 C0.68 2.34 -0.64 1.68 -2 1 C-1.34 0.67 -0.68 0.34 0 0 Z " fill="#7FAFCD" transform="translate(420,266)"/>
<path d="M0 0 C0.33 0.66 0.66 1.32 1 2 C2.32399568 2.68502385 3.6591458 3.34859211 5 4 C6.43758346 5.01260441 7.8545128 6.05512648 9.25 7.125 C9.95640625 7.66382813 10.6628125 8.20265625 11.390625 8.7578125 C11.92171875 9.16773438 12.4528125 9.57765625 13 10 C12.34 10.66 11.68 11.32 11 12 C10.34 11.34 9.68 10.68 9 10 C6.68351201 8.96157435 4.35096976 7.9578025 2 7 C2 5.68 2 4.36 2 3 C1.01 2.67 0.02 2.34 -1 2 C-0.67 1.34 -0.34 0.68 0 0 Z " fill="#8FBFD6" transform="translate(330,232)"/>
<path d="M0 0 C5.69305433 1.23876645 11.35370013 2.56276003 17 4 C13.53001224 6.31332517 12.01273507 6.0489783 8.00390625 5.4140625 C5.46487716 4.88942881 3.28146922 4.24443776 1 3 C0.67 2.01 0.34 1.02 0 0 Z " fill="#89BCD6" transform="translate(490,226)"/>
<path d="M0 0 C0.66 0.33 1.32 0.66 2 1 C0.98949988 3.66404576 0.02766415 4.97707828 -2.1875 6.8125 C-5.82061361 8.3464813 -8.20324498 7.81890795 -12 7 C-9.5129261 5.34195074 -7.02682498 3.80125522 -4.4375 2.3125 C-3.65246094 1.85488281 -2.86742187 1.39726562 -2.05859375 0.92578125 C-1.37925781 0.62027344 -0.69992187 0.31476563 0 0 Z " fill="#8CC1D9" transform="translate(550,220)"/>
<path d="M0 0 C2.97161173 0.1382145 5.21513478 0.34198168 7.546875 2.296875 C8.9375 3.875 8.9375 3.875 11 7 C10.67 7.99 10.34 8.98 10 10 C8.33037631 8.52417192 6.6643694 7.04425109 5 5.5625 C4.071875 4.73878906 3.14375 3.91507813 2.1875 3.06640625 C1.465625 2.38449219 0.74375 1.70257813 0 1 C0 0.67 0 0.34 0 0 Z " fill="#84B6D0" transform="translate(347,205)"/>
<path d="M0 0 C4.63720719 3.27530896 8.68542782 6.30435607 12 11 C11.01 11.33 10.02 11.66 9 12 C7.88625 10.8553125 7.88625 10.8553125 6.75 9.6875 C4.19833971 7.03368162 4.19833971 7.03368162 1.6875 5.4375 C1.130625 4.963125 0.57375 4.48875 0 4 C0 2.68 0 1.36 0 0 Z " fill="#8ABCD6" transform="translate(358,116)"/>
<path d="M0 0 C2.475 0.495 2.475 0.495 5 1 C5 1.66 5 2.32 5 3 C5.66 3 6.32 3 7 3 C7 3.66 7 4.32 7 5 C9.475 5.99 9.475 5.99 12 7 C11.67 8.32 11.34 9.64 11 11 C9.16365304 9.35742342 7.3308593 7.71117305 5.5 6.0625 C4.97535156 5.59392578 4.45070312 5.12535156 3.91015625 4.64257812 C2.5878256 3.44904592 1.29166061 2.22665821 0 1 C0 0.67 0 0.34 0 0 Z " fill="#7FB4CF" transform="translate(233,244)"/>
<path d="M0 0 C0.66 0.33 1.32 0.66 2 1 C2 1.66 2 2.32 2 3 C2.94875 3.226875 3.8975 3.45375 4.875 3.6875 C8 5 8 5 9.375 7.625 C9.58125 8.40875 9.7875 9.1925 10 10 C6.03869629 10 5.17085599 8.65122875 2.3125 6 C1.50425781 5.2575 0.69601562 4.515 -0.13671875 3.75 C-0.75160156 3.1725 -1.36648438 2.595 -2 2 C-1.34 1.34 -0.68 0.68 0 0 Z " fill="#7CB6D1" transform="translate(290,151)"/>
<path d="M0 0 C0.66 0 1.32 0 2 0 C1.35455571 3.48539917 -0.10134397 6.02819057 -2 9 C-0.02 9 1.96 9 4 9 C0.86501708 10.85776765 -1.37471432 11.20140476 -5 11 C-5 9.68 -5 8.36 -5 7 C-4.34 7 -3.68 7 -3 7 C-2.690625 6.030625 -2.38125 5.06125 -2.0625 4.0625 C-1 1 -1 1 0 0 Z " fill="#6CAAC9" transform="translate(344,70)"/>
<path d="M0 0 C0.82242187 0.05220703 1.64484375 0.10441406 2.4921875 0.15820312 C4.49522899 0.28630462 6.49768871 0.42345061 8.5 0.5625 C8.5 0.8925 8.5 1.2225 8.5 1.5625 C-0.32248707 2.41081606 -8.69127807 2.61115737 -17.5 1.5625 C-17.5 1.2325 -17.5 0.9025 -17.5 0.5625 C-11.52842601 -0.36199827 -6.01758541 -0.4263273 0 0 Z " fill="#96C4DB" transform="translate(490.5,289.4375)"/>
<path d="M0 0 C1.670625 0.061875 1.670625 0.061875 3.375 0.125 C0.90531367 2.59468633 -1.19988587 3.19497969 -4.5 4.3125 C-5.54929687 4.67730469 -6.59859375 5.04210937 -7.6796875 5.41796875 C-10.56094885 6.10962433 -11.90286612 6.15730681 -14.625 5.125 C-13.635 5.125 -12.645 5.125 -11.625 5.125 C-11.625 4.465 -11.625 3.805 -11.625 3.125 C-10.201875 2.939375 -10.201875 2.939375 -8.75 2.75 C-4.67780945 1.93556189 -4.31252703 0.14870783 0 0 Z " fill="#94BED7" transform="translate(523.625,281.875)"/>
<path d="M0 0 C0.50789063 0.38671875 1.01578125 0.7734375 1.5390625 1.171875 C5.61331983 4.25427193 9.71647931 7.21571155 14 10 C13.01 10.66 12.02 11.32 11 12 C11 11.34 11 10.68 11 10 C10.29875 9.7525 9.5975 9.505 8.875 9.25 C5.56594064 7.81127854 2.83330365 6.2402866 0 4 C0 2.68 0 1.36 0 0 Z " fill="#8BBCD6" transform="translate(460,207)"/>
<path d="M0 0 C4.51045941 2.46025059 8.18504423 5.60282037 12 9 C10 10 10 10 7.0625 9.375 C3.46882963 7.76151534 2.72562929 6.45125857 1 3 C0.34 2.34 -0.32 1.68 -1 1 C-0.67 0.67 -0.34 0.34 0 0 Z " fill="#7FB7D3" transform="translate(245,157)"/>
<path d="M0 0 C2.10494301 0.08708038 4.20902142 0.19525693 6.3125 0.3125 C8.07013672 0.39951172 8.07013672 0.39951172 9.86328125 0.48828125 C13.0983686 1.01604768 14.08684881 1.42380724 16 4 C10.36718401 4.2396943 5.45461169 3.38529821 0 2 C0 1.34 0 0.68 0 0 Z " fill="#89BED8" transform="translate(299,287)"/>
<path d="M0 0 C0.66 0.33 1.32 0.66 2 1 C0.63842622 6.29500913 -2.60343955 8.23745533 -7 11 C-7.33 10.01 -7.66 9.02 -8 8 C-7.195625 7.7525 -6.39125 7.505 -5.5625 7.25 C-4.2940625 6.63125 -4.2940625 6.63125 -3 6 C-2.25723969 4.02919843 -2.25723969 4.02919843 -2 2 C-1.34 1.34 -0.68 0.68 0 0 Z " fill="#78B4D0" transform="translate(364,269)"/>
<path d="M0 0 C4.63777322 2.91209016 9.47906952 5.95813905 12 11 C11.01 11.33 10.02 11.66 9 12 C7.62437146 10.71034824 6.29233607 9.37310707 5 8 C5 7.34 5 6.68 5 6 C4.360625 5.7525 3.72125 5.505 3.0625 5.25 C1 4 1 4 0.25 1.875 C0.1675 1.25625 0.085 0.6375 0 0 Z " fill="#8EC0D8" transform="translate(176,236)"/>
<path d="M0 0 C6.70459519 5.0940919 6.70459519 5.0940919 7.9375 8.875 C7.958125 9.57625 7.97875 10.2775 8 11 C6.35 11 4.7 11 3 11 C3.33 9.68 3.66 8.36 4 7 C3.01 6.34 2.02 5.68 1 5 C0.3125 2.375 0.3125 2.375 0 0 Z " fill="#76B5D6" transform="translate(446,195)"/>
<path d="M0 0 C-0.99 0 -1.98 0 -3 0 C-3.66 1.32 -4.32 2.64 -5 4 C-8.63 4 -12.26 4 -16 4 C-13.41588269 2.27725513 -11.45097344 1.31104478 -8.5625 0.3125 C-7.41974609 -0.09548828 -7.41974609 -0.09548828 -6.25390625 -0.51171875 C-3.78170279 -1.04729142 -2.37016716 -0.80445309 0 0 Z " fill="#87BBD5" transform="translate(154,115)"/>
<path d="M0 0 C0.7425 0.45375 1.485 0.9075 2.25 1.375 C4.84252774 3.02201374 4.84252774 3.02201374 7.25 3.8125 C9 5 9 5 9.75 8.125 C9.87375 9.548125 9.87375 9.548125 10 11 C9.52949219 10.59007813 9.05898438 10.18015625 8.57421875 9.7578125 C7.95160156 9.21898438 7.32898438 8.68015625 6.6875 8.125 C6.07261719 7.59132813 5.45773437 7.05765625 4.82421875 6.5078125 C2.86501788 4.8359553 2.86501788 4.8359553 0 3 C0 2.01 0 1.02 0 0 Z " fill="#87B7D3" transform="translate(385,96)"/>
<path d="M0 0 C2.1875 -0.3125 2.1875 -0.3125 5 0 C8.22968679 2.64247101 10.52613972 4.73525752 11 9 C6.90784086 6.71320518 3.50049752 4.09346293 0 1 C0 0.67 0 0.34 0 0 Z " fill="#90BBD0" transform="translate(98,266)"/>
<path d="M0 0 C0.66 0.33 1.32 0.66 2 1 C-0.21928194 3.90802461 -1.92969143 5.95312762 -5 8 C-5.99 8 -6.98 8 -8 8 C-7.67 6.68 -7.34 5.36 -7 4 C-5.68 3.67 -4.36 3.34 -3 3 C-3 2.34 -3 1.68 -3 1 C-2.01 0.67 -1.02 0.34 0 0 Z " fill="#6BABCB" transform="translate(559,215)"/>
<path d="M0 0 C2.64 0.66 5.28 1.32 8 2 C8 2.99 8 3.98 8 5 C9.32 5.66 10.64 6.32 12 7 C11.67 7.99 11.34 8.98 11 10 C9.16375669 8.52444734 7.3310715 7.04446569 5.5 5.5625 C4.4790625 4.73878906 3.458125 3.91507813 2.40625 3.06640625 C1.6121875 2.38449219 0.818125 1.70257813 0 1 C0 0.67 0 0.34 0 0 Z " fill="#80B7D1" transform="translate(190,206)"/>
<path d="M0 0 C1.875 1.25 1.875 1.25 2.875 4.25 C3.535 4.91 4.195 5.57 4.875 6.25 C0.7083396 5.77651586 -2.05384715 5.20303159 -5.125 2.25 C-5.125 1.59 -5.125 0.93 -5.125 0.25 C-2.125 -0.75 -2.125 -0.75 0 0 Z " fill="#64ACD1" transform="translate(146.125,162.75)"/>
<path d="M0 0 C3.18666175 0.27953173 4.91798366 0.62000954 7.5625 2.3125 C4.40743858 3.24869813 1.59663498 3.4182123 -1.6875 3.375 C-2.57953125 3.36597656 -3.4715625 3.35695313 -4.390625 3.34765625 C-5.06609375 3.33605469 -5.7415625 3.32445312 -6.4375 3.3125 C-4.13464528 0.65966736 -3.72314367 0.33846761 0 0 Z " fill="#77B3D0" transform="translate(500.4375,286.6875)"/>
<path d="M0 0 C3.99500618 1.3697164 6.80009492 3.25722422 10 6 C7.27958849 6.75566986 5.4981783 7.13838286 2.75 6.375 C1 5 1 5 0.25 2.375 C0.1675 1.59125 0.085 0.8075 0 0 Z " fill="#87B9D6" transform="translate(434,49)"/>
<path d="M0 0 C2.475 0.495 2.475 0.495 5 1 C5 1.66 5 2.32 5 3 C5.61875 3.28875 6.2375 3.5775 6.875 3.875 C9 5 9 5 11 7 C10.67 7.99 10.34 8.98 10 10 C8 8.625 8 8.625 6 7 C6 6.34 6 5.68 6 5 C5.01 4.67 4.02 4.34 3 4 C3 3.34 3 2.68 3 2 C2.01 1.67 1.02 1.34 0 1 C0 0.67 0 0.34 0 0 Z " fill="#8AB8D2" transform="translate(245,255)"/>
<path d="M0 0 C0.33 0 0.66 0 1 0 C1 1.65 1 3.3 1 5 C0.34 5 -0.32 5 -1 5 C-1 6.32 -1 7.64 -1 9 C-0.34 9 0.32 9 1 9 C1 9.66 1 10.32 1 11 C-0.65 10.67 -2.3 10.34 -4 10 C-3.4359146 6.05140217 -2.2568294 3.29120954 0 0 Z " fill="#A0C5D6" transform="translate(102,152)"/>
<path d="M0 0 C3.05082939 1.01694313 3.90372675 1.72144212 6 4 C6.66 4.66 7.32 5.32 8 6 C7.34 6 6.68 6 6 6 C5.67 6.66 5.34 7.32 5 8 C2.69 6.02 0.38 4.04 -2 2 C-1.34 1.34 -0.68 0.68 0 0 Z " fill="#86BAD5" transform="translate(271,134)"/>
<path d="M0 0 C2.38564077 0.57584432 4.66682784 1.22227595 7 2 C7.33 2.99 7.66 3.98 8 5 C9.29355827 6.37195574 10.62298702 7.71182656 12 9 C7.09198451 7.51272258 3.59508707 4.55364515 0 1 C0 0.67 0 0.34 0 0 Z " fill="#7AAFCA" transform="translate(255,122)"/>
<path d="M0 0 C1.98 0.66 3.96 1.32 6 2 C6 2.66 6 3.32 6 4 C6.66 4 7.32 4 8 4 C8.33 5.32 8.66 6.64 9 8 C8.01 8 7.02 8 6 8 C6 7.34 6 6.68 6 6 C5.401875 5.731875 4.80375 5.46375 4.1875 5.1875 C2.02775192 4.01506533 0.64209744 2.80630718 -1 1 C-0.67 0.67 -0.34 0.34 0 0 Z " fill="#7BB4D3" transform="translate(396,106)"/>
<path d="M0 0 C2.64 0.33 5.28 0.66 8 1 C8 1.99 8 2.98 8 4 C8.99 4 9.98 4 11 4 C11 4.66 11 5.32 11 6 C6.48986609 5.46939601 3.61621781 3.69113883 0 1 C0 0.67 0 0.34 0 0 Z " fill="#76ABCD" transform="translate(216,93)"/>
<path d="M0 0 C0.99 0 1.98 0 3 0 C3.33 1.32 3.66 2.64 4 4 C6.97 4.495 6.97 4.495 10 5 C10 5.33 10 5.66 10 6 C6.7 6.33 3.4 6.66 0 7 C-1.125 2.25 -1.125 2.25 0 0 Z " fill="#99C2D6" transform="translate(167,86)"/>
<path d="M0 0 C2.31 0.33 4.62 0.66 7 1 C3.63576723 3.96052484 0.30840713 4.92289822 -4 6 C-4.33 5.34 -4.66 4.68 -5 4 C-3.35 3.67 -1.7 3.34 0 3 C0 2.01 0 1.02 0 0 Z " fill="#7FB8D2" transform="translate(201,277)"/>
<path d="M0 0 C0.99 0.33 1.98 0.66 3 1 C3.33 2.65 3.66 4.3 4 6 C4.66 6 5.32 6 6 6 C5.67 7.98 5.34 9.96 5 12 C0 4.5 0 4.5 0 0 Z " fill="#87BCD4" transform="translate(81,237)"/>
<path d="M0 0 C3.14737182 0.69941596 6.02588876 1.76078698 9 3 C9 4.65 9 6.3 9 8 C7.68388323 7.04663979 6.37221039 6.08714226 5.0625 5.125 C4.33160156 4.59132812 3.60070312 4.05765625 2.84765625 3.5078125 C1 2 1 2 0 0 Z " fill="#7AB2CF" transform="translate(358,215)"/>
<path d="M0 0 C4.83256305 0.41421969 6.82679218 2.46413986 10 6 C9.67 6.99 9.34 7.98 9 9 C7 7.625 7 7.625 5 6 C5 5.34 5 4.68 5 4 C4.360625 3.71125 3.72125 3.4225 3.0625 3.125 C1 2 1 2 0 0 Z " fill="#7FB3CF" transform="translate(337,196)"/>
<path d="M0 0 C3.43595166 1.52708963 6.11912454 3.59927045 9 6 C7.37399059 5.9129995 5.74910322 5.8048219 4.125 5.6875 C3.22007812 5.62949219 2.31515625 5.57148437 1.3828125 5.51171875 C-1 5 -1 5 -3 2 C-2.01 1.67 -1.02 1.34 0 1 C0 0.67 0 0.34 0 0 Z " fill="#7EB8D7" transform="translate(203,122)"/>
<path d="M0 0 C5.01113235 1.4317521 6.94469549 3.98445693 10 8 C6.05783322 7.7312159 4.43510186 7.44655191 1.625 4.5625 C0 2 0 2 0 0 Z " fill="#86B9D3" transform="translate(135,200)"/>
<path d="M0 0 C3.11288957 1.49879868 6.04537409 3.21167379 9 5 C9.66 5.33 10.32 5.66 11 6 C11 6.99 11 7.98 11 9 C1.71875 4.53125 1.71875 4.53125 0 0 Z " fill="#6BA7C9" transform="translate(313,173)"/>
<path d="M0 0 C3.45925163 1.2491742 6.14693203 2.67527795 9 5 C8.67 5.66 8.34 6.32 8 7 C4.66272214 5.82744291 2.22562513 4.81131596 0 2 C0 1.34 0 0.68 0 0 Z " fill="#85B6D1" transform="translate(217,133)"/>
<path d="M0 0 C-1.5725165 0.89429374 -3.15853741 1.76487427 -4.75 2.625 C-5.63171875 3.11226563 -6.5134375 3.59953125 -7.421875 4.1015625 C-10 5 -10 5 -12.328125 4.1484375 C-12.87984375 3.76945312 -13.4315625 3.39046875 -14 3 C-9.5718927 0.52025991 -4.9510693 -1.65035643 0 0 Z " fill="#90BED7" transform="translate(356,281)"/>
<path d="M0 0 C0.66 0 1.32 0 2 0 C2.3125 2.25 2.3125 2.25 2 5 C-0.25 7.375 -0.25 7.375 -3 9 C-5.3125 8.75 -5.3125 8.75 -7 8 C-5.68 7.67 -4.36 7.34 -3 7 C-3 6.34 -3 5.68 -3 5 C-2.34 4.67 -1.68 4.34 -1 4 C-0.34786708 1.97536745 -0.34786708 1.97536745 0 0 Z " fill="#7BADC3" transform="translate(212,269)"/>
<path d="M0 0 C0.33 0.66 0.66 1.32 1 2 C3.02463255 2.65213292 3.02463255 2.65213292 5 3 C5.33 2.34 5.66 1.68 6 1 C6.66 1.99 7.32 2.98 8 4 C7.236875 4.28875 6.47375 4.5775 5.6875 4.875 C2.84970692 5.96269013 2.84970692 5.96269013 0 8 C-0.38063221 5.6739143 -0.71269945 3.33944736 -1 1 C-0.67 0.67 -0.34 0.34 0 0 Z " fill="#73B9E0" transform="translate(290,200)"/>
<path d="M0 0 C1.98 0.99 1.98 0.99 4 2 C4 2.66 4 3.32 4 4 C4.9590625 4.433125 4.9590625 4.433125 5.9375 4.875 C8 6 8 6 9 8 C7.35 7.67 5.7 7.34 4 7 C4 6.34 4 5.68 4 5 C2.68 4.34 1.36 3.68 0 3 C0 2.01 0 1.02 0 0 Z " fill="#87B8D4" transform="translate(424,176)"/>
<path d="M0 0 C1.2077558 3.62326739 0.54311128 4.64146369 -1 8 C-1.66 8 -2.32 8 -3 8 C-3 8.66 -3 9.32 -3 10 C-3.99 10 -4.98 10 -6 10 C-4.34832443 6.4213696 -2.21713508 3.25179812 0 0 Z " fill="#90BBD9" transform="translate(110,140)"/>
<path d="M0 0 C2.64 0 5.28 0 8 0 C8 0.66 8 1.32 8 2 C8.99 2 9.98 2 11 2 C11 2.99 11 3.98 11 5 C9.53932801 4.54917531 8.08151968 4.08906463 6.625 3.625 C5.81289063 3.36976562 5.00078125 3.11453125 4.1640625 2.8515625 C2 2 2 2 0 0 Z " fill="#84B7D0" transform="translate(360,82)"/>
<path d="M0 0 C1.98 0.99 1.98 0.99 4 2 C4 2.66 4 3.32 4 4 C5.32 4.66 6.64 5.32 8 6 C7.67 7.32 7.34 8.64 7 10 C6.01 9.67 5.02 9.34 4 9 C3.6278958 7.67696283 3.29369827 6.34262065 3 5 C2.34 4.67 1.68 4.34 1 4 C0.375 1.9375 0.375 1.9375 0 0 Z " fill="#8DBFD7" transform="translate(311,74)"/>
<path d="M0 0 C2.97 0.33 5.94 0.66 9 1 C9.33 1.99 9.66 2.98 10 4 C6.71303767 4.79953138 5.28976808 5.09658936 2 4 C1.34 2.68 0.68 1.36 0 0 Z " fill="#6CAFD5" transform="translate(425,48)"/>
<path d="M0 0 C-3.19990508 2.74277578 -6.00499382 4.6302836 -10 6 C-10.33 5.34 -10.66 4.68 -11 4 C-10.34 4 -9.68 4 -9 4 C-8.67 3.01 -8.34 2.02 -8 1 C-5.07175348 0.02391783 -3.04386724 -0.08226668 0 0 Z " fill="#6AADD4" transform="translate(222,46)"/>
<path d="M0 0 C0.99 0.33 1.98 0.66 3 1 C1.74194623 5.50802601 0.09592835 8.4912812 -3 12 C-3.43200679 7.24792529 -1.98489083 4.21789302 0 0 Z " fill="#8BBBD7" transform="translate(559,244)"/>
<path d="M0 0 C1.31611677 0.95336021 2.62778961 1.91285774 3.9375 2.875 C4.66839844 3.40867188 5.39929688 3.94234375 6.15234375 4.4921875 C8 6 8 6 9 8 C6.625 7.75 6.625 7.75 4 7 C2.6875 4.9375 2.6875 4.9375 2 3 C1.34 3 0.68 3 0 3 C0 2.01 0 1.02 0 0 Z " fill="#8BC0D4" transform="translate(158,220)"/>
<path d="M0 0 C7.75 -0.125 7.75 -0.125 10 1 C10 1.66 10 2.32 10 3 C10.66 3 11.32 3 12 3 C11.67 3.99 11.34 4.98 11 6 C10.34 5.34 9.68 4.68 9 4 C7.47943382 3.40165446 5.93387912 2.86493344 4.375 2.375 C3.55773437 2.11460937 2.74046875 1.85421875 1.8984375 1.5859375 C0.95871094 1.29589844 0.95871094 1.29589844 0 1 C0 0.67 0 0.34 0 0 Z " fill="#74B4D7" transform="translate(147,169)"/>
<path d="M0 0 C1.31611677 0.95336021 2.62778961 1.91285774 3.9375 2.875 C4.66839844 3.40867188 5.39929688 3.94234375 6.15234375 4.4921875 C8 6 8 6 9 8 C7.68 8 6.36 8 5 8 C5 7.34 5 6.68 5 6 C3.68 5.67 2.36 5.34 1 5 C0.67 3.35 0.34 1.7 0 0 Z " fill="#8BBDD6" transform="translate(394,149)"/>
<path d="M0 0 C3.81684226 1.55500981 6.19195732 4.03595495 9 7 C8.67 7.66 8.34 8.32 8 9 C7.34 9 6.68 9 6 9 C6 8.01 6 7.02 6 6 C5.34 6 4.68 6 4 6 C3.34 5.34 2.68 4.68 2 4 C1.34 4 0.68 4 0 4 C0 2.68 0 1.36 0 0 Z " fill="#81B7D3" transform="translate(371,129)"/>
<path d="M0 0 C4.71403788 0.47939368 8.66579301 0.96834048 13 3 C13 3.33 13 3.66 13 4 C8.17639811 4.19294408 4.50353262 3.75747614 0 2 C0 1.34 0 0.68 0 0 Z " fill="#91C5D9" transform="translate(257,43)"/>
<path d="M0 0 C0.99 0.66 1.98 1.32 3 2 C-2.14285714 6.42857143 -2.14285714 6.42857143 -6 7 C-6 6.34 -6 5.68 -6 5 C-5.34 5 -4.68 5 -4 5 C-4 4.34 -4 3.68 -4 3 C-2 1.375 -2 1.375 0 0 Z " fill="#8DBAD1" transform="translate(541,189)"/>
<path d="M0 0 C1.34173403 0.92543709 2.67320159 1.86577405 4 2.8125 C5.11375 3.59560547 5.11375 3.59560547 6.25 4.39453125 C6.8275 4.92433594 7.405 5.45414063 8 6 C8 6.99 8 7.98 8 9 C2.09815951 5.65030675 2.09815951 5.65030675 0 3 C0 2.01 0 1.02 0 0 Z " fill="#88B8CF" transform="translate(528,128)"/>
<path d="M0 0 C1.31611677 0.95336021 2.62778961 1.91285774 3.9375 2.875 C4.66839844 3.40867188 5.39929688 3.94234375 6.15234375 4.4921875 C8 6 8 6 9 8 C7.35 7.67 5.7 7.34 4 7 C4 6.34 4 5.68 4 5 C3.01 4.67 2.02 4.34 1 4 C0.3125 1.9375 0.3125 1.9375 0 0 Z " fill="#8BBCD5" transform="translate(167,228)"/>
<path d="M0 0 C5.78461538 4.43076923 5.78461538 4.43076923 6.875 7.3125 C6.936875 8.1478125 6.936875 8.1478125 7 9 C3.27762318 7.75920773 1.64250671 5.85112566 -1 3 C-1.33 2.34 -1.66 1.68 -2 1 C-1.34 0.67 -0.68 0.34 0 0 Z " fill="#8CC1D7" transform="translate(430,135)"/>
<path d="M0 0 C0.66 0.66 1.32 1.32 2 2 C1.625 4.125 1.625 4.125 1 6 C1.99 5.67 2.98 5.34 4 5 C4.33 5.99 4.66 6.98 5 8 C3.35 8.33 1.7 8.66 0 9 C-0.84454356 5.62182575 -1.10844919 3.32534757 0 0 Z " fill="#6EB5DD" transform="translate(370,127)"/>
<path d="M0 0 C2.31 1.65 4.62 3.3 7 5 C6.01 5.66 5.02 6.32 4 7 C2.68 6.34 1.36 5.68 0 5 C0 3.35 0 1.7 0 0 Z " fill="#8AB9D8" transform="translate(477,81)"/>
<path d="M0 0 C2.64 1.98 5.28 3.96 8 6 C4 7 4 7 2 7 C1.87625 6.360625 1.7525 5.72125 1.625 5.0625 C1.315625 4.0415625 1.315625 4.0415625 1 3 C0.34 2.67 -0.32 2.34 -1 2 C-0.67 1.34 -0.34 0.68 0 0 Z " fill="#8FC3D9" transform="translate(455,62)"/>
<path d="M0 0 C0.99 0.33 1.98 0.66 3 1 C4.1875 3.5625 4.1875 3.5625 5 6 C2.625 5.6875 2.625 5.6875 0 5 C-0.66 4.01 -1.32 3.02 -2 2 C-1.34 1.34 -0.68 0.68 0 0 Z " fill="#76AED2" transform="translate(97,260)"/>
<path d="M0 0 C1.98 1.65 3.96 3.3 6 5 C5.67 5.99 5.34 6.98 5 8 C2.69 6.02 0.38 4.04 -2 2 C-1.34 1.34 -0.68 0.68 0 0 Z " fill="#8FC1D6" transform="translate(393,244)"/>
<path d="M0 0 C0.33 0.66 0.66 1.32 1 2 C4.3 2 7.6 2 11 2 C7.70245629 3.64877185 5.55995883 4.53158436 2 5 C1.34 4.67 0.68 4.34 0 4 C0 2.68 0 1.36 0 0 Z " fill="#74ACCF" transform="translate(101,157)"/>
<path d="M0 0 C0.66 0.33 1.32 0.66 2 1 C2 2.32 2 3.64 2 5 C2.66 5.33 3.32 5.66 4 6 C3.67 6.99 3.34 7.98 3 9 C2.67 8.01 2.34 7.02 2 6 C-0.50447516 4.78130071 -0.50447516 4.78130071 -3 4 C-2.01 2.68 -1.02 1.36 0 0 Z " fill="#83B6D6" transform="translate(419,123)"/>
<path d="M0 0 C0 0.66 0 1.32 0 2 C-4.41225737 3.47075246 -7.48281619 4.36884358 -12 3 C-12 2.67 -12 2.34 -12 2 C-10.56342755 1.66269158 -9.12569907 1.33030409 -7.6875 1 C-6.88699219 0.814375 -6.08648438 0.62875 -5.26171875 0.4375 C-3 0 -3 0 0 0 Z " fill="#7EB8CE" transform="translate(535,228)"/>
<path d="M0 0 C1.98 0.99 1.98 0.99 4 2 C4 2.66 4 3.32 4 4 C5.32 4.66 6.64 5.32 8 6 C6.02 6.99 6.02 6.99 4 8 C3.566875 7.0409375 3.566875 7.0409375 3.125 6.0625 C2.17176549 3.84793921 2.17176549 3.84793921 0 3 C0 2.01 0 1.02 0 0 Z " fill="#88BBD3" transform="translate(318,222)"/>
<path d="M0 0 C1.46726798 3.81489674 0.43336419 6.29011622 -1 10 C-1.66 10 -2.32 10 -3 10 C-2.49287967 6.28111761 -1.88391785 3.26545761 0 0 Z " fill="#8AB8D3" transform="translate(82,202)"/>
<path d="M0 0 C3.37462715 0.54723683 5.08235 1.0549 8 3 C8 3.66 8 4.32 8 5 C6.68 5 5.36 5 4 5 C4 4.34 4 3.68 4 3 C2.68 2.67 1.36 2.34 0 2 C0 1.34 0 0.68 0 0 Z " fill="#6BAACC" transform="translate(123,192)"/>
<path d="M0 0 C1.16945792 0.80847729 2.33550461 1.62189112 3.5 2.4375 C4.47453125 3.11619141 4.47453125 3.11619141 5.46875 3.80859375 C5.9740625 4.20175781 6.479375 4.59492188 7 5 C7 5.33 7 5.66 7 6 C4.625 6.125 4.625 6.125 2 6 C1.34 5.34 0.68 4.68 0 4 C0 2.68 0 1.36 0 0 Z " fill="#81BBD5" transform="translate(433,184)"/>
<path d="M0 0 C1.32 0 2.64 0 4 0 C4 0.66 4 1.32 4 2 C4.99 2.33 5.98 2.66 7 3 C6.67 4.32 6.34 5.64 6 7 C4.02 4.69 2.04 2.38 0 0 Z " fill="#8DBFD9" transform="translate(165,183)"/>
<path d="M0 0 C2.9719385 1.12451727 5.33440687 2.22293791 8 4 C8 4.66 8 5.32 8 6 C5.03 5.01 2.06 4.02 -1 3 C-0.67 2.01 -0.34 1.02 0 0 Z " fill="#91C1DC" transform="translate(133,159)"/>
<path d="M0 0 C0.99 0.33 1.98 0.66 3 1 C4.1875 3.5625 4.1875 3.5625 5 6 C2.0625 5.1875 2.0625 5.1875 -1 4 C-1.33 3.01 -1.66 2.02 -2 1 C-1.34 0.67 -0.68 0.34 0 0 Z " fill="#67ADCD" transform="translate(408,114)"/>
<path d="M0 0 C3.98175544 2.10148204 6.35039045 4.36905358 9 8 C7.35 7.67 5.7 7.34 4 7 C3.67 5.68 3.34 4.36 3 3 C2.01 3 1.02 3 0 3 C0 2.01 0 1.02 0 0 Z " fill="#8EBBD5" transform="translate(349,108)"/>
<path d="M0 0 C3.4375 0.8125 3.4375 0.8125 7 2 C7.33 2.99 7.66 3.98 8 5 C7.01 5.495 7.01 5.495 6 6 C3.4375 4.75 3.4375 4.75 1 3 C0.67 2.01 0.34 1.02 0 0 Z " fill="#78B0CF" transform="translate(506,110)"/>
<path d="M0 0 C0.66 1.32 1.32 2.64 2 4 C0.824375 4.12375 0.824375 4.12375 -0.375 4.25 C-3.14749104 4.72806339 -3.14749104 4.72806339 -4.3125 7.0625 C-4.6528125 8.0215625 -4.6528125 8.0215625 -5 9 C-5.66 8.67 -6.32 8.34 -7 8 C-4.69 5.36 -2.38 2.72 0 0 Z " fill="#9AC7DD" transform="translate(179,70)"/>
<path d="M0 0 C-3.6441774 2.4294516 -5.71241272 2.16179575 -10 2 C-10.33 2.66 -10.66 3.32 -11 4 C-11.66 3.34 -12.32 2.68 -13 2 C-11.5882217 1.46605821 -10.17029756 0.94834896 -8.75 0.4375 C-7.96109375 0.14746094 -7.1721875 -0.14257812 -6.359375 -0.44140625 C-3.80896548 -1.04522837 -2.44677771 -0.8473932 0 0 Z " fill="#A3C9DF" transform="translate(227,44)"/>
<path d="M0 0 C0.66 0.99 1.32 1.98 2 3 C-3.94 2.01 -3.94 2.01 -10 1 C-5.66437185 -1.16781407 -4.50491 -1.27312674 0 0 Z " fill="#6BACC9" transform="translate(119,188)"/>
<path d="M0 0 C0.99 0.33 1.98 0.66 3 1 C1.625 3 1.625 3 0 5 C-0.66 5 -1.32 5 -2 5 C-2 5.66 -2 6.32 -2 7 C-2.66 6.67 -3.32 6.34 -4 6 C-1.125 1.125 -1.125 1.125 0 0 Z " fill="#72A9C9" transform="translate(183,66)"/>
<path d="M0 0 C0.33 0.66 0.66 1.32 1 2 C1.99 2 2.98 2 4 2 C4 2.66 4 3.32 4 4 C4.66 4 5.32 4 6 4 C5.67 5.32 5.34 6.64 5 8 C5 7.34 5 6.68 5 6 C4.38125 5.731875 3.7625 5.46375 3.125 5.1875 C1 4 1 4 -1 1 C-0.67 0.67 -0.34 0.34 0 0 Z " fill="#83B8D1" transform="translate(368,222)"/>
<path d="M0 0 C1.98 1.65 3.96 3.3 6 5 C5.67 5.99 5.34 6.98 5 8 C3.68 7.67 2.36 7.34 1 7 C0.67 4.69 0.34 2.38 0 0 Z " fill="#8CC1DD" transform="translate(310,214)"/>
<path d="M0 0 C0.66 0.33 1.32 0.66 2 1 C0.95125002 3.62187494 0.35068687 4.79371361 -2.125 6.25 C-2.74375 6.4975 -3.3625 6.745 -4 7 C-4.66 6.34 -5.32 5.68 -6 5 C-4.02 3.35 -2.04 1.7 0 0 Z " fill="#86B8D1" transform="translate(93,190)"/>
<path d="M0 0 C3.24208567 0.35049575 4.61527704 0.56221181 6.8125 3.0625 C7.204375 3.701875 7.59625 4.34125 8 5 C7.01 5.495 7.01 5.495 6 6 C6 5.34 6 4.68 6 4 C4.35 3.67 2.7 3.34 1 3 C0.67 2.01 0.34 1.02 0 0 Z " fill="#82BAD5" transform="translate(261,173)"/>
<path d="M0 0 C2.875 0.25 2.875 0.25 6 1 C7.375 3.0625 7.375 3.0625 8 5 C7.01 5.495 7.01 5.495 6 6 C3.97945196 4.35830472 1.97956942 2.69088222 0 1 C0 0.67 0 0.34 0 0 Z " fill="#96C4DC" transform="translate(440,147)"/>
<path d="M0 0 C2.99324263 1.0975223 3.84610901 1.67682892 5.25 4.625 C5.4975 5.40875 5.745 6.1925 6 7 C2.34683329 5.75023244 1.21934164 5.32901247 -1 2 C-0.67 1.34 -0.34 0.68 0 0 Z " fill="#96C1DA" transform="translate(227,97)"/>
<path d="M0 0 C0.99 0 1.98 0 3 0 C3 1.32 3 2.64 3 4 C3.66 4 4.32 4 5 4 C4.67 4.99 4.34 5.98 4 7 C2 6 2 6 0 3 C0 2.01 0 1.02 0 0 Z " fill="#6CAED8" transform="translate(481,87)"/>
<path d="M0 0 C0.33 0.66 0.66 1.32 1 2 C-1.40436026 5.60654039 -2.94679607 5.85452932 -7 7 C-5.66667905 3.00003714 -3.5042173 2.16217663 0 0 Z " fill="#9BC7DA" transform="translate(361,53)"/>
<path d="M0 0 C0 0.99 0 1.98 0 3 C-2.64 3.66 -5.28 4.32 -8 5 C-7.67 4.01 -7.34 3.02 -7 2 C-4.56723614 0.81480735 -2.71982714 0 0 0 Z " fill="#68A6CA" transform="translate(540,272)"/>
<path d="M0 0 C5.53846154 0.49230769 5.53846154 0.49230769 7.875 3.0625 C8.431875 4.0215625 8.431875 4.0215625 9 5 C8.67 5.66 8.34 6.32 8 7 C2.25 2.25 2.25 2.25 0 0 Z " fill="#70A8C6" transform="translate(198,259)"/>
<path d="M0 0 C2.3125 0.1875 2.3125 0.1875 4 1 C2.02579865 3.52259061 1.03254358 3.9929808 -2.1875 4.6875 C-3.5796875 4.8421875 -3.5796875 4.8421875 -5 5 C-2.75 2.4375 -2.75 2.4375 0 0 Z " fill="#97B9D0" transform="translate(562,211)"/>
<path d="M0 0 C3.11743233 1.50098594 6.15501823 3.02431822 9 5 C9 5.99 9 6.98 9 8 C7 8 7 8 4.5 5.6875 C2 3 2 3 0 0 Z " fill="#9AC1D5" transform="translate(318,179)"/>
<path d="M0 0 C1.98 1.65 3.96 3.3 6 5 C5.67 5.66 5.34 6.32 5 7 C1.60085025 5.86695008 0.94745549 4.87481525 -1 2 C-0.67 1.34 -0.34 0.68 0 0 Z " fill="#7BB4D0" transform="translate(382,138)"/>
<path d="M0 0 C2.0625 0.75 2.0625 0.75 4 2 C4.33 2.99 4.66 3.98 5 5 C2.08482708 3.92598892 0.22189824 3.22189824 -2 1 C-1.34 0.67 -0.68 0.34 0 0 Z " fill="#8BBAD6" transform="translate(426,270)"/>
<path d="M0 0 C2.31 0.33 4.62 0.66 7 1 C6.67 1.99 6.34 2.98 6 4 C4.02 3.34 2.04 2.68 0 2 C0 1.34 0 0.68 0 0 Z " fill="#5CA9CF" transform="translate(231,241)"/>
<path d="M0 0 C2.475 0.495 2.475 0.495 5 1 C5.33 2.65 5.66 4.3 6 6 C4 4.625 4 4.625 2 3 C2 2.34 2 1.68 2 1 C1.34 0.67 0.68 0.34 0 0 Z " fill="#94C4D9" transform="translate(383,238)"/>
<path d="M0 0 C2.31 0.66 4.62 1.32 7 2 C7 3.32 7 4.64 7 6 C5.83054208 5.19152271 4.66449539 4.37810888 3.5 3.5625 C2.8503125 3.11003906 2.200625 2.65757812 1.53125 2.19140625 C1.0259375 1.79824219 0.520625 1.40507812 0 1 C0 0.67 0 0.34 0 0 Z " fill="#97C0D6" transform="translate(220,233)"/>
<path d="M0 0 C1.8125 0.1875 1.8125 0.1875 4 1 C5.75 3.5625 5.75 3.5625 7 6 C5.1875 5.8125 5.1875 5.8125 3 5 C1.25 2.4375 1.25 2.4375 0 0 Z " fill="#6CA4C1" transform="translate(209,221)"/>
<path d="M0 0 C0.99 0 1.98 0 3 0 C6 3.33333333 6 3.33333333 6 6 C3.37812506 4.95125002 2.20628639 4.35068687 0.75 1.875 C0.5025 1.25625 0.255 0.6375 0 0 Z " fill="#90C0D4" transform="translate(330,189)"/>
<path d="M0 0 C1.65 1.65 3.3 3.3 5 5 C4.01 5.33 3.02 5.66 2 6 C2 5.34 2 4.68 2 4 C0.68 3.67 -0.64 3.34 -2 3 C-1 1 -1 1 0 0 Z " fill="#8BC0DB" transform="translate(274,182)"/>
<path d="M0 0 C0.99 0.33 1.98 0.66 3 1 C3.33 2.98 3.66 4.96 4 7 C2 5.75 2 5.75 0 4 C0 2.68 0 1.36 0 0 Z " fill="#73B1D1" transform="translate(455,157)"/>
</svg>
